<?xml version="1.0" standalone="no"?>
<!DOCTYPE svg PUBLIC "-//W3C//DTD SVG 1.1//EN" "http://www.w3.org/Graphics/SVG/1.1/DTD/svg11.dtd" >
<svg xmlns="http://www.w3.org/2000/svg">
<metadata>Generated by IcoMoon</metadata>
<defs>
<font id="icomoon" horiz-adv-x="1024">
<font-face units-per-em="1024" ascent="960" descent="-64" />
<missing-glyph horiz-adv-x="1024" />
<glyph unicode="&#x20;" d="" horiz-adv-x="512" />
<glyph unicode="&#xe600;" d="M453.312 275.911v0c-14.080 0-26.656 5.12-36.384 14.848-19.072 19.072-21.056 47.36-5.824 84.096 56.064 135.36 364.32 393.824 410.688 393.824 4.256 0 11.104-2.592 14.112-5.568 10.272-10.272 4.928-26.080-1.44-41.408-38.624-93.216-268.288-445.792-381.152-445.792zM802.848 727.335c-76.672-47.136-329.344-259.040-366.112-375.456-8.576-27.104 0-35.68 2.816-38.496 3.776-3.776 8.032-5.472 13.76-5.472 85.472 0 307.808 324.48 349.536 419.424zM316.032 127.687c-77.44 0-154.112 34.56-174.976 105.856-1.664 5.696 0.096 11.84 4.512 15.776 4.448 3.936 10.688 5.024 16.16 2.688 79.808-33.696 105.312 2.24 134.784 43.84 24.8 34.912 52.864 74.56 113.568 61.152 8.256-1.824 13.504-10.016 11.68-18.304-1.824-8.256-9.824-13.536-18.304-11.68-38.752 8.576-55.648-11.936-81.92-48.928-26.944-37.92-59.52-84.032-135.648-66.336 35.488-46.656 113.184-62.208 177.696-48.352 27.072 5.856 114.528 31.68 102.24 118.464-1.184 8.384 4.672 16.128 13.056 17.344 8.192 1.312 16.128-4.64 17.344-13.056 10.464-73.984-39.072-133.952-126.144-152.736-17.568-3.808-35.84-5.728-54.048-5.728z" />
<glyph unicode="&#xe601;" d="M788 149.255h-580.384c-32.96 0-59.808 26.816-59.808 59.808v488.416c0 32.96 26.816 59.776 59.808 59.776h580.384c32.96 0 59.776-26.816 59.776-59.776v-488.416c0-32.96-26.816-59.808-59.776-59.808zM207.616 725.255c-15.328 0-27.808-12.48-27.808-27.776v-488.416c0-15.328 12.48-27.808 27.808-27.808h580.384c15.328 0 27.776 12.48 27.776 27.808v488.416c0 15.328-12.48 27.776-27.776 27.776h-580.384zM832 519.111h-640c-8.832 0-16 7.168-16 16s7.168 16 16 16h640c8.832 0 16-7.168 16-16s-7.168-16-16-16zM432 151.111c-8.832 0-16 7.168-16 16v352c0 8.832 7.168 16 16 16s16-7.168 16-16v-352c0-8.832-7.168-16-16-16z" />
<glyph unicode="&#xe602;" d="M225.216 327.303c-68 0-123.328 55.328-123.328 123.328s55.328 123.328 123.328 123.328c18.56 0 36.896-4.416 54.496-13.152 7.456-3.712 10.848-12.544 7.744-20.288-11.584-28.896-17.44-59.168-17.44-89.888 0-30.752 5.888-60.992 17.44-89.888 3.104-7.744-0.256-16.576-7.744-20.288-17.568-8.736-35.904-13.152-54.496-13.152zM225.216 541.959c-50.368 0-91.328-40.96-91.328-91.328s40.96-91.328 91.328-91.328c9.088 0 18.144 1.472 27.072 4.384-9.472 28.16-14.272 57.344-14.272 86.944s4.8 58.752 14.272 86.944c-8.96 2.912-18.016 4.384-27.072 4.384zM415.52 377.831c-28.672 0-52 23.328-52 52.032s23.328 52 52 52 52-23.328 52-52-23.296-52.032-52-52.032zM415.52 449.895c-11.040 0-20-8.992-20-20 0-11.040 8.992-20.032 20-20.032s20 8.992 20 20.032c0.032 11.008-8.96 20-20 20zM608.48 377.831c-28.672 0-52 23.328-52 52.032s23.328 52 52 52 52-23.328 52-52-23.328-52.032-52-52.032zM608.48 449.895c-11.040 0-20-8.992-20-20 0-11.040 8.992-20.032 20-20.032s20 8.992 20 20.032c0 11.008-8.992 20-20 20zM592 286.823h-160c-8.832 0-16 7.168-16 16s7.168 16 16 16h160c8.832 0 16-7.168 16-16s-7.168-16-16-16zM798.784 327.303c-18.592 0-36.928 4.416-54.528 13.152-7.456 3.712-10.816 12.544-7.744 20.288 11.584 28.896 17.44 59.136 17.44 89.888 0 30.72-5.888 60.992-17.44 89.888-3.104 7.744 0.288 16.576 7.744 20.288 17.6 8.736 35.936 13.152 54.496 13.152 68 0 123.328-55.328 123.328-123.328s-55.296-123.328-123.296-123.328zM771.744 363.687c8.928-2.912 17.984-4.384 27.072-4.384 50.368 0 91.328 40.96 91.328 91.328s-40.96 91.328-91.328 91.328c-9.088 0-18.144-1.472-27.072-4.384 9.472-28.16 14.272-57.344 14.272-86.944-0.032-29.6-4.8-58.784-14.272-86.944zM512 176.615c-151.072 0-273.984 122.912-273.984 273.984 0 75.744 30.336 146.080 85.472 198.464 0.704 0.896 1.504 1.76 2.4 2.496l4 3.328c3.52 3.2 7.488 6.656 11.616 9.984 62.016 53.856 104.768 101.024 111.136 122.72 1.76 6.016 6.88 10.464 13.12 11.328 6.112 0.96 12.352-1.952 15.744-7.264l28.544-44.736 24.512 31.904c2.816 3.648 7.072 5.92 11.68 6.208 4.544 0.192 9.12-1.408 12.352-4.672 23.584-23.744 60.064-58.72 108.48-104.064 20.192-13.376 40.096-31.648 57.376-52.896 2.528-1.792 4.512-4.256 5.632-7.168 36.64-48.096 55.968-105.248 55.968-165.632-0.064-151.040-122.976-273.984-274.048-273.984zM348.448 628.743c-0.352-0.416-0.736-0.8-1.152-1.184-49.856-46.432-77.312-109.28-77.312-176.928 0-133.44 108.576-241.984 241.984-241.984s241.984 108.576 241.984 241.984c0 54.816-18.048 106.624-52.192 149.856-0.096 0.128-0.192 0.256-0.288 0.384 0 0-0.032 0.032-0.064 0.064-15.744 19.808-33.984 36.768-54.304 50.464-42.24 39.328-74.816 70.4-98.304 93.536l-27.328-35.584c-3.168-4.16-8.192-6.816-13.376-6.24-5.216 0.224-9.984 2.976-12.768 7.392l-25.984 40.736c-23.424-34.624-68.96-77.6-107.392-110.976-4.16-3.328-7.616-6.4-11.072-9.504l-2.432-2.016z" />
<glyph unicode="&#xe603;" d="M506.24 116.071c-151.040 0-251.616 12.192-251.616 71.616 0 43.328 129.28 255.008 161.344 306.848v232.576c0.032 8.832 7.2 16 16.032 16h160c8.832 0 16-7.168 16-16v-232.736c40-67.584 158.048-270.336 158.048-306.688 0-47.52-87.392-71.616-259.808-71.616zM448 711.111v-221.12c0-2.976-0.832-5.92-2.4-8.448-78.144-125.952-158.944-270.304-158.944-293.888 0-14.784 28.544-39.616 219.616-39.616 189.152 0 227.808 31.264 227.808 39.616-1.28 21.6-80.224 166.56-155.808 294.144-1.504 2.528-2.272 5.312-2.272 8.192v221.12h-128zM513.376 341.767c-54.368 0-146.4 11.392-146.4 54.080s92 54.080 146.4 54.080c54.368 0 146.368-11.392 146.368-54.080 0.032-42.72-92-54.080-146.368-54.080zM400.032 395.847c8.16-7.648 46.176-22.080 113.344-22.080s105.184 14.464 113.344 22.080c-8.16 7.648-46.176 22.080-113.344 22.080s-105.184-14.432-113.344-22.080zM624 711.111h-224c-8.832 0-16 7.168-16 16v64c0 8.832 7.168 16 16 16h224c8.832 0 16-7.168 16-16v-64c0-8.832-7.168-16-16-16zM416 743.111h192v32h-192v-32z" />
<glyph unicode="&#xe604;" d="M513.28 200.807c-2.176 0-4.384 0.448-6.464 1.344-119.008 52.416-252.416 60.544-372.544 22.624-4.896-1.472-10.144-0.64-14.272 2.368-4.096 3.008-6.528 7.808-6.528 12.896v442.4c0 6.976 4.544 13.152 11.2 15.264 127.552 40.192 268.992 31.68 395.072-23.872 5.792-2.56 9.536-8.288 9.536-14.656v-442.368c0-5.408-2.72-10.464-7.264-13.408-2.656-1.696-5.696-2.592-8.736-2.592zM289.024 280.455c71.296 0 141.216-13.344 208.224-39.648v407.84c-112.64 47.168-237.792 54.944-351.808 21.888v-409.12c46.56 12.64 94.72 19.040 143.584 19.040zM449.952 552.999c-2.176 0-4.384 0.448-6.496 1.376-68.672 30.624-144.64 35.68-213.952 14.208-8.416-2.624-17.408 2.112-20 10.56-2.624 8.448 2.112 17.408 10.56 20 76.8 23.744 160.736 18.208 236.448-15.552 8.064-3.584 11.712-13.056 8.096-21.12-2.688-5.952-8.544-9.472-14.656-9.472zM449.952 444.455c-2.176 0-4.384 0.448-6.496 1.376-68.608 30.656-144.64 35.68-213.952 14.208-8.416-2.656-17.408 2.112-20 10.56-2.624 8.448 2.112 17.408 10.56 20 76.832 23.712 160.8 18.208 236.448-15.552 8.064-3.584 11.712-13.056 8.096-21.12-2.688-5.92-8.544-9.472-14.656-9.472zM449.952 335.943c-2.176 0-4.384 0.448-6.496 1.376-68.672 30.656-144.672 35.648-213.952 14.208-8.416-2.624-17.408 2.112-20 10.56s2.112 17.408 10.56 20c76.736 23.744 160.736 18.24 236.448-15.552 8.064-3.584 11.712-13.056 8.096-21.12-2.688-5.92-8.544-9.472-14.656-9.472zM513.44 200.807c-3.072 0-6.080 0.864-8.736 2.592-4.544 2.944-7.264 8-7.264 13.408v442.368c0 6.336 3.744 12.064 9.536 14.656 126.080 55.552 267.52 64.064 395.072 23.872 6.656-2.112 11.2-8.288 11.2-15.264v-442.368c0-5.088-2.432-9.888-6.528-12.896s-9.376-3.872-14.272-2.368c-120.16 37.888-253.536 29.792-372.544-22.624-2.048-0.928-4.256-1.376-6.464-1.376zM529.44 648.647v-407.84c112.96 44.352 237.472 51.68 351.808 20.608v409.12c-113.984 33.12-239.136 25.28-351.808-21.888zM576.768 552.999c-6.112 0-11.968 3.52-14.624 9.472-3.616 8.064 0 17.536 8.096 21.12 75.712 33.792 159.648 39.328 236.448 15.552 8.448-2.624 13.152-11.552 10.56-20-2.624-8.448-11.52-13.152-20-10.56-69.312 21.44-145.312 16.416-213.952-14.208-2.112-0.928-4.352-1.376-6.528-1.376zM576.768 444.455c-6.112 0-11.968 3.52-14.624 9.472-3.616 8.064 0 17.536 8.096 21.12 75.68 33.824 159.616 39.328 236.448 15.552 8.448-2.624 13.152-11.552 10.56-20-2.624-8.416-11.52-13.184-20-10.56-69.376 21.504-145.344 16.416-213.952-14.208-2.112-0.928-4.352-1.376-6.528-1.376zM576.768 335.943c-6.112 0-11.968 3.52-14.624 9.472-3.616 8.064 0 17.536 8.096 21.12 75.712 33.824 159.68 39.328 236.448 15.552 8.448-2.624 13.152-11.584 10.56-20-2.624-8.448-11.52-13.152-20-10.56-69.312 21.44-145.312 16.448-213.952-14.208-2.112-0.928-4.352-1.376-6.528-1.376z" />
<glyph unicode="&#xe605;" d="M608 583.111h-192c-8.832 0-16 7.168-16 16s7.168 16 16 16h192c8.832 0 16-7.168 16-16s-7.168-16-16-16zM769.152 499.207c-57.568 0-104.416 46.816-104.416 104.384 0 57.536 46.848 104.384 104.416 104.384s104.384-46.816 104.384-104.384c0-57.568-46.816-104.384-104.384-104.384zM769.152 675.975c-39.936 0-72.416-32.48-72.416-72.384 0-39.936 32.48-72.384 72.416-72.384 39.904 0 72.384 32.48 72.384 72.384s-32.48 72.384-72.384 72.384zM254.848 499.207c-57.568 0-104.384 46.816-104.384 104.384 0 57.536 46.816 104.384 104.384 104.384s104.416-46.816 104.416-104.384c0-57.568-46.848-104.384-104.416-104.384zM254.848 675.975c-39.904 0-72.384-32.48-72.384-72.384 0-39.936 32.48-72.384 72.384-72.384 39.936 0 72.416 32.48 72.416 72.384s-32.48 72.384-72.416 72.384zM512 92.103c-57.568 0-104.384 46.816-104.384 104.384s46.816 104.384 104.384 104.384 104.384-46.816 104.384-104.384c0-57.568-46.816-104.384-104.384-104.384zM512 268.871c-39.904 0-72.384-32.48-72.384-72.384s32.48-72.384 72.384-72.384 72.384 32.48 72.384 72.384c0 39.904-32.48 72.384-72.384 72.384zM418.752 321.799c-4.96 0-9.856 2.304-12.96 6.656l-86.944 120.576c-5.184 7.168-3.552 17.184 3.616 22.336 7.104 5.152 17.12 3.52 22.304-3.616l86.944-120.576c5.184-7.168 3.552-17.184-3.616-22.336-2.816-2.048-6.080-3.040-9.344-3.040zM605.248 321.799c-3.264 0-6.528 0.992-9.344 3.008-7.2 5.184-8.8 15.168-3.616 22.336l86.944 120.576c5.152 7.168 15.2 8.768 22.304 3.616 7.2-5.184 8.8-15.168 3.616-22.336l-86.944-120.576c-3.104-4.288-8-6.624-12.96-6.624z" />
<glyph unicode="&#xe606;" d="M522.496 149.383c-79.904 0-148.32 6.304-203.296 18.752-7.712 1.76-12.992 8.896-12.448 16.8 3.808 51.712-3.008 128.8-30.048 138.336-13.376 4.672-27.52-1.216-42.912-8.16-13.376-6.080-27.232-12.352-43.296-12.48-38.848 0-68.864 36.256-68.864 82.528 0 45.984 29.184 81.984 66.432 81.984 16.864-0.128 31.2-6.688 44.96-13.024 16-7.328 30.752-13.6 44.8-8.96 16.064 5.376 25.28 19.872 30.176 31.104 11.712 26.848 11.008 61.216 3.552 77.632-14.624 32.512-33.824 63.328-33.984 63.648-3.040 4.832-3.264 10.912-0.576 15.968s7.84 8.288 13.536 8.48l6.496 0.064 14.368-0.032c124.96 0 146.688 24.224 150.208 34.624 4.96 14.624-1.056 28.544-8.064 44.64-5.92 13.632-12.032 27.712-12.16 43.872-0.128 17.024 6.72 33.376 19.328 46.080 31.584 31.84 95.232 30.432 125.024 0.352 11.68-11.808 17.792-26.464 17.632-42.4-0.16-16.672-6.944-31.392-12.928-44.384-8.352-17.984-13.216-29.76-8.64-44 11.552-35.968 67.264-41.312 99.392-41.312h99.2c8.128 0 14.976-6.080 15.904-14.176 0.864-7.616 20.192-186.688-78.656-210.912-5.696-1.376-11.648-2.080-17.792-2.080-0.032 0-0.032 0-0.032 0-19.296 0-37.856 6.944-54.176 13.088-13.248 4.96-25.792 9.664-35.936 9.76-20.704 0-33.408-25.952-33.408-49.984 0-13.472 4.544-26.784 12.448-36.48 7.328-9.056 16.736-14.016 26.464-14.016 9.632 0.064 20.672 4.704 32.448 9.632 20.448 8.576 46.752 17.344 69.952 9.216 67.84-23.936 78.336-134.080 78.752-138.784l0.064-30.944c0-7.936-5.792-14.656-13.632-15.84-1.152-0.224-124.992-18.592-260.288-18.592zM339.456 196.551c50.336-10.048 111.84-15.168 183.040-15.168 107.008 0 206.56 11.68 241.984 16.32v15.584c-2.304 24.768-17.248 95.84-57.44 110.016-13.664 4.832-29.824-1.344-46.976-8.544-14.048-5.888-28.608-12-44.288-12.096-20.032 0-38.24 9.184-51.776 25.824-12.672 15.52-19.616 35.68-19.616 56.672 0 45.984 28.64 81.984 65.152 81.984 16.352-0.16 32.16-6.080 47.424-11.808 18.336-6.88 37.952-13.664 53.12-9.856 57.984 14.208 57.6 122.656 55.488 162.016h-84.288c-90.464 0-120.576 34.528-129.856 63.52-8.672 26.816 1.696 49.248 9.984 67.232 5.088 11.008 9.92 21.408 9.984 31.232 0.064 7.328-2.752 13.92-8.384 19.584-17.664 17.824-60.256 19.104-79.552-0.384-4.64-4.672-10.112-12.48-10.016-23.296 0.064-9.632 4.672-20.192 9.504-31.36 8-18.4 17.952-41.344 9.024-67.648-16.544-48.672-104.608-55.872-172.96-56.32 6.656-12 14.656-27.232 21.792-43.040 12.32-27.296 10.88-70.88-3.424-103.616-10.752-24.608-27.808-41.408-49.376-48.64-23.712-8-48.896 1.344-68.256 10.208-11.264 5.184-21.888 10.048-31.392 10.112-18.912 0-34.688-22.88-34.688-49.984 0-27.872 16.32-50.528 36.384-50.528 9.504 0.064 19.712 4.704 30.56 9.632 18.848 8.544 43.552 17.376 66.752 9.216 51.84-18.208 53.696-115.744 52.096-156.864z" />
<glyph unicode="&#xe607;" d="M260.064 217.223c-73.312 0-132.928 59.648-132.928 132.928s59.616 132.928 132.928 132.928c15.488 0 31.232-2.976 46.784-8.864 6.432-2.432 10.592-8.672 10.336-15.552-1.92-52 2.752-126.56 35.712-186.688 3.52-6.464 2.208-14.496-3.232-19.456-24.736-22.752-56.576-35.296-89.6-35.296zM260.064 451.111c-55.648 0-100.928-45.28-100.928-100.928s45.28-100.928 100.928-100.928c21.024 0 41.504 6.752 58.688 19.264-28.672 59.296-34.656 127.616-33.888 179.264-8.32 2.208-16.64 3.328-24.8 3.328zM338.88 248.327c-5.664 0-11.136 3.008-14.016 8.32-36.48 66.528-41.696 147.232-39.648 203.232 0.32 8.832 6.784 16.352 16.608 15.392 8.8-0.32 15.712-7.744 15.392-16.576-1.92-52 2.752-126.56 35.712-186.688 4.256-7.744 1.408-17.472-6.336-21.728-2.464-1.344-5.088-1.952-7.712-1.952zM546.688 138.311c-86.592 0-153.184 27.776-198.016 82.528-94.688 115.744-56.896 309.28-55.264 317.472 1.536 7.456 8.096 12.8 15.712 12.8h475.168c7.616 0 14.176-5.344 15.68-12.832 1.664-8.192 39.424-201.728-55.264-317.472-44.8-54.752-111.424-82.496-198.016-82.496zM322.688 519.111c-6.432-43.936-21.216-190.144 50.848-278.112 38.4-46.912 96.672-70.688 173.152-70.688 76.512 0 134.752 23.776 173.184 70.688 72.032 88 57.28 234.208 50.848 278.112h-448.032zM411.488 577.767c-8.832 0-16 7.168-16 16 0 23.040 11.84 35.296 20.512 44.224 7.744 8.032 11.488 12.352 11.488 22.016s-3.744 13.984-11.488 22.048c-8.672 8.928-20.512 21.216-20.512 44.224s11.84 35.264 20.512 44.192c7.776 8.032 11.488 12.32 11.488 21.952 0 8.832 7.168 16 16 16s16-7.168 16-16c0-23.008-11.84-35.264-20.512-44.192-7.776-8.032-11.488-12.32-11.488-21.952 0-9.664 3.744-13.984 11.488-22.016 8.672-8.928 20.512-21.216 20.512-44.224s-11.84-35.296-20.512-44.256c-7.744-8.032-11.488-12.352-11.488-22.016 0-8.832-7.136-16-16-16zM527.36 577.767c-8.832 0-16 7.168-16 16 0 23.040 11.84 35.296 20.512 44.224 7.744 8.032 11.488 12.352 11.488 22.016s-3.744 13.984-11.488 22.016c-8.672 8.928-20.512 21.216-20.512 44.224s11.84 35.264 20.512 44.192c7.776 8.032 11.488 12.32 11.488 21.952 0 8.832 7.168 16 16 16s16-7.168 16-16c0-23.008-11.84-35.264-20.512-44.192-7.776-8.032-11.488-12.32-11.488-21.952 0-9.664 3.744-13.984 11.488-22.016 8.672-8.928 20.512-21.216 20.512-44.224s-11.84-35.296-20.512-44.256c-7.744-8.032-11.488-12.352-11.488-22.016 0-8.8-7.136-15.968-16-15.968zM643.296 577.767c-8.832 0-16 7.168-16 16 0 23.040 11.84 35.296 20.512 44.224 7.744 8.032 11.488 12.352 11.488 22.016s-3.744 13.984-11.488 22.016c-8.672 8.928-20.512 21.216-20.512 44.224s11.84 35.264 20.512 44.192c7.776 8.032 11.488 12.32 11.488 21.952 0 8.832 7.168 16 16 16s16-7.168 16-16c0-23.008-11.84-35.264-20.512-44.192-7.776-8.032-11.488-12.32-11.488-21.952 0-9.664 3.744-13.984 11.488-22.016 8.672-8.928 20.512-21.216 20.512-44.224s-11.84-35.296-20.512-44.256c-7.744-8.032-11.488-12.352-11.488-22.016 0-8.8-7.168-15.968-16-15.968zM260.064 291.751c-32.224 0-58.432 26.208-58.432 58.432s26.208 58.432 58.432 58.432 58.432-26.208 58.432-58.432-26.208-58.432-58.432-58.432zM260.064 376.583c-14.56 0-26.432-11.872-26.432-26.432s11.872-26.432 26.432-26.432 26.432 11.872 26.432 26.432-11.872 26.432-26.432 26.432z" />
<glyph unicode="&#xe608;" d="M507.84 171.783l-6.592 2.976c-11.008 4.96-270.176 124.128-299.584 325.632-7.808 53.76 4.224 100.864 34.88 136.288 31.616 36.576 82.72 58.432 136.608 58.432 56.576 0 105.664-22.912 134.368-61.312 28.8 38.4 77.984 61.312 134.56 61.312 53.984 0 105.056-21.856 136.704-58.464 30.656-35.424 42.688-82.528 34.88-136.256-29.408-201.504-288.256-320.672-299.264-325.632l-6.56-2.976zM373.152 663.111c-44.736 0-86.784-17.696-112.448-47.36-24.384-28.16-33.856-66.464-27.36-110.72 24.416-167.488 234.368-278.24 274.496-297.952 40.064 19.776 249.792 130.688 274.144 297.952 6.464 44.256-3.008 82.528-27.36 110.688-25.664 29.664-67.744 47.392-112.544 47.392-55.072 0-101.056-25.728-120.064-67.136l-14.56-31.808-14.528 31.84c-18.88 41.408-64.736 67.104-119.776 67.104z" />
<glyph unicode="&#xe609;" d="M512 210.759c-197.12 0-365.088 230.56-372.16 240.352-4 5.568-4 13.12 0 18.688 7.072 9.824 175.040 240.384 372.16 240.384s365.088-230.56 372.16-240.384c4-5.568 4-13.12 0-18.688-7.072-9.792-175.040-240.352-372.16-240.352zM172.928 460.455c33.376-42.752 179.712-217.696 339.072-217.696s305.696 174.912 339.072 217.696c-33.376 42.816-179.712 217.728-339.072 217.728-159.552 0-305.728-174.912-339.072-217.728zM512 322.919c-75.84 0-137.568 61.696-137.568 137.536 0 75.872 61.728 137.568 137.568 137.568s137.568-61.696 137.568-137.568c0-75.84-61.728-137.536-137.568-137.536zM512 566.023c-58.208 0-105.568-47.36-105.568-105.568s47.328-105.536 105.568-105.536 105.568 47.328 105.568 105.536-47.36 105.568-105.568 105.568z" />
<glyph unicode="&#xe60a;" d="M426.4 490.535h-198.4c-26.464 0-48 21.536-48 48v198.4c0 26.464 21.536 48 48 48h198.4c26.464 0 48-21.536 48-48v-198.4c0-26.464-21.536-48-48-48zM228 752.935c-8.832 0-16-7.168-16-16v-198.4c0-8.832 7.168-16 16-16h198.4c8.832 0 16 7.168 16 16v198.4c0 8.832-7.168 16-16 16h-198.4zM793.792 490.535h-198.4c-26.464 0-48 21.536-48 48v198.4c0 26.464 21.536 48 48 48h198.4c26.464 0 48-21.536 48-48v-198.4c0-26.464-21.536-48-48-48zM595.36 752.935c-8.832 0-16-7.168-16-16v-198.4c0-8.832 7.168-16 16-16h198.4c8.832 0 16 7.168 16 16v198.4c0 8.832-7.168 16-16 16h-198.4zM426.4 119.111h-198.4c-26.464 0-48 21.536-48 48v198.4c0 26.464 21.536 48 48 48h198.4c26.464 0 48-21.536 48-48v-198.4c0-26.464-21.536-48-48-48zM228 381.511c-8.832 0-16-7.168-16-16v-198.4c0-8.832 7.168-16 16-16h198.4c8.832 0 16 7.168 16 16v198.4c0 8.832-7.168 16-16 16h-198.4zM793.792 119.111h-198.4c-26.464 0-48 21.536-48 48v198.4c0 26.464 21.536 48 48 48h198.4c26.464 0 48-21.536 48-48v-198.4c0-26.464-21.536-48-48-48zM595.36 381.511c-8.832 0-16-7.168-16-16v-198.4c0-8.832 7.168-16 16-16h198.4c8.832 0 16 7.168 16 16v198.4c0 8.832-7.168 16-16 16h-198.4z" />
<glyph unicode="&#xe60b;" d="M790.112 263.111c-0.192 0-0.416 0.032-0.64 0h-558.688c-7.328 0-13.76 4.992-15.52 12.128s1.536 14.56 8 17.984c40.64 21.6 53.664 90.464 67.456 163.392 22.464 118.656 50.432 266.336 219.36 266.336 169.12 0 197.216-147.936 219.744-266.784 13.568-71.488 26.4-139.104 65.12-161.824 6.432-2.048 11.104-8.096 11.104-15.232 0.064-8.832-7.104-16-15.936-16zM272.352 295.111h475.712c-27.296 37.28-38.208 94.944-49.632 155.104-22.464 118.368-45.696 240.768-188.32 240.768-142.432 0-165.568-122.144-187.936-240.288-11.392-60.352-22.336-118.208-49.824-155.584zM544 743.111h-64c-8.832 0-16 7.168-16 16s7.168 16 16 16h64c8.832 0 16-7.168 16-16s-7.168-16-16-16zM510.112 162.791c-63.68 0-115.488 51.808-115.488 115.488 0 8.832 7.168 16 16 16s16-7.168 16-16c0-46.048 37.44-83.488 83.488-83.488s83.52 37.44 83.52 83.488c0 8.832 7.168 16 16 16s16-7.168 16-16c0-63.68-51.808-115.488-115.52-115.488z" />
<glyph unicode="&#xe60c;" d="M672.384 103.111h-320.768c-43.648 0-81.024 35.488-83.296 79.104l-20.32 392.352c-0.448 8.832 6.336 16.352 15.168 16.8 8.64 0.768 16.32-6.304 16.8-15.168l20.32-392.384c1.376-26.816 24.416-48.704 51.328-48.704h320.768c26.912 0 49.952 21.856 51.328 48.736l20.32 391.392c0.48 8.832 7.712 15.936 16.8 15.168 8.832-0.48 15.616-8 15.168-16.8l-20.32-391.392c-2.272-43.648-39.648-79.104-83.296-79.104zM512 183.111c-8.832 0-16 7.168-16 16v288c0 8.832 7.168 16 16 16s16-7.168 16-16v-288c0-8.832-7.168-16-16-16zM400 183.111c-8.832 0-16 7.168-16 16v288c0 8.832 7.168 16 16 16s16-7.168 16-16v-288c0-8.832-7.168-16-16-16zM624 183.111c-8.832 0-16 7.168-16 16v288c0 8.832 7.168 16 16 16s16-7.168 16-16v-288c0-8.832-7.168-16-16-16zM623.968 694.695c-8.832 0-16 7.168-16 16 0 52.928-43.040 95.968-95.968 95.968s-95.968-43.040-95.968-95.968c0-8.832-7.168-16-16-16s-16 7.168-16 16c0 70.56 57.408 127.968 127.968 127.968s127.968-57.408 127.968-127.968c0-8.864-7.168-16-16-16zM816 583.111h-608c-8.832 0-16 7.168-16 16v96c0 8.832 7.168 16 16 16h608c8.832 0 16-7.168 16-16v-96c0-8.832-7.168-16-16-16zM224 615.111h576v64h-576v-64z" />
<glyph unicode="&#xe60d;" d="M369.536 145.479c-87.68 0-158.976 71.328-158.976 158.976s71.328 158.976 158.976 158.976c8.832 0 16-7.168 16-16s-7.168-16-16-16c-70.016 0-126.976-56.96-126.976-126.976s56.96-126.976 126.976-126.976 126.976 56.96 126.976 126.976c0 8.832 7.168 16 16 16s16-7.168 16-16c0-87.68-71.328-158.976-158.976-158.976zM660.352 436.007c-4.896 0-9.856 0.224-14.784 0.672-8.8 0.8-15.296 8.608-14.496 17.376 0.8 8.8 8.8 15.2 17.376 14.496 33.824-3.104 66.72 7.168 92.8 28.832 26.048 21.696 42.112 52.256 45.216 86.016 6.4 69.728-45.152 131.648-114.88 138.016-69.792 6.4-131.648-45.152-138.016-114.848-0.8-8.8-8.672-15.36-17.376-14.496-8.8 0.8-15.296 8.608-14.496 17.376 8 87.328 85.664 151.744 172.8 143.84 87.328-8 151.84-85.536 143.84-172.8-3.872-42.304-24-80.544-56.64-107.712-28.768-23.968-64.32-36.768-101.344-36.768zM369.536 288.455c-4.096 0-8.192 1.568-11.328 4.672-6.24 6.24-6.24 16.384 0 22.624l290.528 290.528c6.24 6.24 16.384 6.24 22.624 0s6.24-16.384 0-22.624l-290.528-290.528c-3.104-3.104-7.2-4.672-11.296-4.672z" />
<glyph unicode="&#xe60e;" d="M653.888 167.111h-332.8c-44.096 0-80 35.904-80 80v332.8c0 44.096 35.904 80 80 80h262.4c8.832 0 16-7.168 16-16s-7.168-16-16-16h-262.4c-26.464 0-48-21.536-48-48v-332.8c0-26.464 21.536-48 48-48h332.8c26.464 0 48 21.536 48 48v230.4c0 8.832 7.168 16 16 16s16-7.168 16-16v-230.4c0-44.096-35.904-80-80-80zM784 535.111c-8.832 0-16 7.168-16 16v128h-128c-8.832 0-16 7.168-16 16s7.168 16 16 16h144c8.832 0 16-7.168 16-16v-144c0-8.832-7.168-16-16-16zM432.544 326.567c-4.096 0-8.192 1.568-11.328 4.672-6.24 6.24-6.24 16.384 0 22.624l339.744 339.776c6.24 6.24 16.384 6.24 22.624 0s6.24-16.384 0-22.624l-339.712-339.776c-3.136-3.104-7.232-4.672-11.328-4.672z" />
<glyph unicode="&#xe60f;" d="M512 343.047c-4.096 0-8.192 1.568-11.328 4.672l-113.984 113.984c-6.24 6.24-6.24 16.384 0 22.624s16.384 6.24 22.624 0l102.688-102.656 102.688 102.688c6.24 6.24 16.384 6.24 22.624 0s6.24-16.384 0-22.624l-113.984-113.984c-3.136-3.168-7.232-4.704-11.328-4.704zM721.856 236.679h-419.712c-44.128 0-80 35.744-80 79.648v63.68c0 8.832 7.168 16 16 16s16-7.168 16-16v-63.68c0-26.272 21.536-47.648 48-47.648h419.68c26.464 0 48 21.376 48 47.648v63.68c0 8.832 7.168 16 16 16s16-7.168 16-16v-63.68c0.032-43.904-35.84-79.648-79.968-79.648zM512 355.687c-8.832 0-16 7.168-16 16v282.656c0 8.832 7.168 16 16 16s16-7.168 16-16v-282.656c0-8.864-7.168-16-16-16z" />
<glyph unicode="&#xe610;" d="M625.984 524.359c-4.096 0-8.192 1.568-11.328 4.672l-102.656 102.688-102.688-102.688c-6.24-6.24-16.384-6.24-22.624 0s-6.24 16.384 0 22.624l113.984 113.984c6.24 6.24 16.384 6.24 22.624 0l113.984-113.984c6.24-6.24 6.24-16.384 0-22.624-3.104-3.136-7.2-4.672-11.296-4.672zM721.856 236.679h-419.712c-44.128 0-80 35.744-80 79.648v63.68c0 8.832 7.168 16 16 16s16-7.168 16-16v-63.68c0-26.272 21.536-47.648 48-47.648h419.68c26.464 0 48 21.376 48 47.648v63.68c0 8.832 7.168 16 16 16s16-7.168 16-16v-63.68c0.032-43.904-35.84-79.648-79.968-79.648zM512 343.047c-8.832 0-16 7.168-16 16v282.656c0 8.832 7.168 16 16 16s16-7.168 16-16v-282.656c0-8.864-7.168-16-16-16z" />
<glyph unicode="&#xe611;" d="M560 391.111h-96c-8.832 0-16 7.168-16 16v96c0 8.832 7.168 16 16 16h96c8.832 0 16-7.168 16-16v-96c0-8.832-7.168-16-16-16zM480 423.111h64v64h-64v-64zM560 199.111h-96c-8.832 0-16 7.168-16 16v96c0 8.832 7.168 16 16 16h96c8.832 0 16-7.168 16-16v-96c0-8.832-7.168-16-16-16zM480 231.111h64v64h-64v-64zM560 583.111h-96c-8.832 0-16 7.168-16 16v96c0 8.832 7.168 16 16 16h96c8.832 0 16-7.168 16-16v-96c0-8.832-7.168-16-16-16zM480 615.111h64v64h-64v-64zM368 391.111h-96c-8.832 0-16 7.168-16 16v96c0 8.832 7.168 16 16 16h96c8.832 0 16-7.168 16-16v-96c0-8.832-7.168-16-16-16zM288 423.111h64v64h-64v-64zM368 199.111h-96c-8.832 0-16 7.168-16 16v96c0 8.832 7.168 16 16 16h96c8.832 0 16-7.168 16-16v-96c0-8.832-7.168-16-16-16zM288 231.111h64v64h-64v-64zM368 583.111h-96c-8.832 0-16 7.168-16 16v96c0 8.832 7.168 16 16 16h96c8.832 0 16-7.168 16-16v-96c0-8.832-7.168-16-16-16zM288 615.111h64v64h-64v-64zM752 391.111h-96c-8.832 0-16 7.168-16 16v96c0 8.832 7.168 16 16 16h96c8.832 0 16-7.168 16-16v-96c0-8.832-7.168-16-16-16zM672 423.111h64v64h-64v-64zM752 199.111h-96c-8.832 0-16 7.168-16 16v96c0 8.832 7.168 16 16 16h96c8.832 0 16-7.168 16-16v-96c0-8.832-7.168-16-16-16zM672 231.111h64v64h-64v-64zM752 583.111h-96c-8.832 0-16 7.168-16 16v96c0 8.832 7.168 16 16 16h96c8.832 0 16-7.168 16-16v-96c0-8.832-7.168-16-16-16zM672 615.111h64v64h-64v-64z" />
<glyph unicode="&#xe612;" d="M510.88 99.015c-196.16 0-355.744 159.584-355.744 355.744s159.584 355.712 355.744 355.712 355.712-159.584 355.712-355.744-159.552-355.712-355.712-355.712zM510.88 778.471c-178.528 0-323.744-145.216-323.744-323.744s145.216-323.744 323.744-323.744c178.496 0 323.712 145.216 323.712 323.744s-145.216 323.744-323.712 323.744zM510.88 201.191c-32.256 0-58.464 26.24-58.464 58.464s26.208 58.464 58.464 58.464 58.464-26.24 58.464-58.464-26.208-58.464-58.464-58.464zM510.88 286.151c-14.592 0-26.464-11.872-26.464-26.464s11.872-26.464 26.464-26.464 26.464 11.872 26.464 26.464-11.872 26.464-26.464 26.464zM543.36 349.127h-73.6c-7.616 0-14.176 5.376-15.68 12.832-16.672 83.104 25.888 132.96 54.016 165.952 4.8 5.632 9.248 10.784 12.832 15.584 11.2 14.88 14.912 34.464 8.864 46.496-6.144 12.32-22.144 14.912-34.464 14.912-9.056 0-15.648-2.752-20.736-8.672-15.36-17.824-13.344-58.976-11.424-72 0.672-4.608-0.672-9.28-3.68-12.8-3.072-3.52-7.456-5.536-12.128-5.536h-73.6c-7.936 0-14.656 5.792-15.808 13.632-0.608 3.904-13.76 96.48 35.168 153.216 24.096 27.968 58.496 42.144 102.24 42.144 62.752 0 110.368-24.64 134.080-69.344 24.704-46.592 20.064-109.344-11.616-156.128-7.072-10.432-14.016-19.584-20.64-28.224-22.784-29.952-37.856-49.728-37.856-96.096 0.032-8.8-7.104-15.968-15.968-15.968zM483.392 381.127h44.576c3.456 46.528 22.304 71.264 43.808 99.488 6.24 8.192 12.832 16.896 19.552 26.784 24.832 36.672 28.864 87.328 9.888 123.2-18.176 34.24-54.784 52.352-105.856 52.352-34.016 0-60.288-10.432-78.016-31.040-29.632-34.4-30.464-88.768-28.992-113.984h41.6c-0.832 21.664 1.216 56.992 20.448 79.264 11.168 12.928 26.72 19.744 44.992 19.744 40.704 0 56.992-20.416 63.104-32.608 13.312-26.592 3.616-59.328-11.872-80-3.968-5.312-8.8-11.008-14.112-17.184-23.968-28.032-56.16-65.728-49.12-126.016z" />
<glyph unicode="&#xe613;" d="M456.736 95.943c-62.528 0-84.704 44.576-84.704 82.752 0 25.632 20.192 100.544 48.704 203.584 13.376 48.384 28.544 103.2 28.96 112.32 0 10.24-26.528 31.968-50.208 44.48-6.272 3.296-9.632 10.336-8.256 17.312 1.408 6.944 7.2 12.16 14.24 12.8 1.344 0.096 133.152 12 199.008 27.52 5.568 1.248 11.296-0.416 15.168-4.48 3.936-4.032 5.408-9.888 3.936-15.328-8.416-30.848-17.856-64.896-27.456-99.584-30.208-108.8-67.36-242.816-71.264-276.064 1.92-0.32 4.704-0.64 8.832-0.64 33.6 0 94.208 18.24 94.816 18.432 6.368 1.952 13.44-0.32 17.472-5.76 4.032-5.408 4.256-12.736 0.544-18.4-2.656-4-66.816-98.944-189.792-98.944zM452.704 541.735c15.264-12.96 28.992-29.568 28.992-47.296 0-10.72-8.704-43.296-30.112-120.672-20.096-72.512-47.552-171.808-47.552-195.072 0-18.944 6.848-50.752 52.704-50.752 56.8 0 99.584 24.352 127.072 46.944-17.12-3.488-35.392-6.272-50.080-6.272-37.152 0-41.152 19.584-41.152 28 0 25.28 28.768 130.912 72.704 289.248 7.072 25.44 14.016 50.528 20.544 74.24-42.336-7.872-95.904-14.336-133.12-18.368zM569.696 649.575c-56.384 0-81.76 48.96-81.76 83.744 0 34.272 28.416 81.76 81.76 81.76 46.72 0 84.704-37.568 84.704-83.744 0-45.088-37.984-81.76-84.704-81.76zM569.696 783.079c-34.72 0-49.76-32.928-49.76-49.76 0-16.896 12.16-51.744 49.76-51.744 29.568 0 52.704 21.856 52.704 49.76 0 28.032-24.16 51.744-52.704 51.744z" />
<glyph unicode="&#xe614;" d="M175.744 215.559c-1.472 0-2.944 0.192-4.416 0.608-8.512 2.432-13.408 11.296-11.008 19.776l118.624 415.744c1.76 6.208 7.104 10.752 13.536 11.488 6.432 0.832 12.672-2.432 15.808-8.064l148.992-266.56 180.896 386.912c2.656 5.696 9.344 8.288 14.72 9.216 6.304-0.096 11.968-3.872 14.464-9.632l206.112-474.848c3.52-8.096-0.192-17.536-8.288-21.056-8.128-3.552-17.536 0.192-21.056 8.288l-192 442.272-179.104-383.040c-2.56-5.44-7.936-8.992-13.92-9.216-5.888-0.256-11.616 2.944-14.56 8.16l-145.408 260.192-108.032-378.656c-2.016-7.008-8.416-11.584-15.36-11.584z" />
<glyph unicode="&#xe615;" d="M592 199.111h-288c-44.096 0-80 35.904-80 80v288c0 44.096 32.288 80 72 80h56c8.832 0 16-7.168 16-16s-7.168-16-16-16h-56c-22.048 0-40-21.536-40-48v-288c0-26.464 21.536-48 48-48h288c26.464 0 48 17.952 48 40v56c0 8.832 7.168 16 16 16s16-7.168 16-16v-56c0-39.712-35.904-72-80-72zM720 327.111h-288c-44.096 0-80 35.904-80 80v288c0 44.096 35.904 80 80 80h288c44.096 0 80-35.904 80-80v-288c0-44.096-35.904-80-80-80zM432 743.111c-26.464 0-48-21.536-48-48v-288c0-26.464 21.536-48 48-48h288c26.464 0 48 21.536 48 48v288c0 26.464-21.536 48-48 48h-288z" />
<glyph unicode="&#xe616;" d="M640 135.111h-256c-8.832 0-16 7.168-16 16s7.168 16 16 16h256c8.832 0 16-7.168 16-16s-7.168-16-16-16zM786.72 233.031h-549.44c-44.096 0-80 35.904-80 80v320.992c0 44.096 35.904 80 80 80h549.44c44.096 0 80-35.904 80-80v-320.992c0-44.096-35.904-80-80-80zM237.28 682.023c-26.464 0-48-21.536-48-48v-320.992c0-26.464 21.536-48 48-48h549.44c26.464 0 48 21.536 48 48v320.992c0 26.464-21.536 48-48 48h-549.44zM848 359.111h-672c-8.832 0-16 7.168-16 16s7.168 16 16 16h672c8.832 0 16-7.168 16-16s-7.168-16-16-16zM512 151.111c-8.832 0-16 7.168-16 16v64c0 8.832 7.168 16 16 16s16-7.168 16-16v-64c0-8.832-7.168-16-16-16z" />
<glyph unicode="&#xe617;" d="M752 123.111h-480c-44.096 0-80 35.904-80 80v536c0 44.096 35.904 80 80 80h480c44.096 0 80-35.904 80-80v-536c0-44.096-35.904-80-80-80zM272 787.111c-26.464 0-48-21.536-48-48v-536c0-26.464 21.536-48 48-48h480c26.464 0 48 21.536 48 48v536c0 26.464-21.536 48-48 48h-480zM508.896 189.639c-35.168 0-63.776 28.608-63.776 63.776s28.608 63.776 63.776 63.776 63.776-28.608 63.776-63.776-28.608-63.776-63.776-63.776zM508.896 285.191c-17.536 0-31.776-14.24-31.776-31.776s14.24-31.776 31.776-31.776 31.776 14.24 31.776 31.776-14.24 31.776-31.776 31.776zM576 711.111h-128c-8.832 0-16 7.168-16 16s7.168 16 16 16h128c8.832 0 16-7.168 16-16s-7.168-16-16-16z" />
<glyph unicode="&#xe618;" d="M624 141.447h-224c-44.096 0-80 35.904-80 80v467.328c0 44.096 35.904 80 80 80h224c44.096 0 80-35.904 80-80v-467.328c0-44.096-35.904-80-80-80zM400 736.775c-26.464 0-48-21.536-48-48v-467.328c0-26.464 21.536-48 48-48h224c26.464 0 48 21.536 48 48v467.328c0 26.464-21.536 48-48 48h-224zM504.256 207.015c-34.688 0-62.944 28.224-62.944 62.944s28.224 62.912 62.944 62.912 62.944-28.224 62.944-62.912-28.256-62.944-62.944-62.944zM504.256 300.871c-17.056 0-30.944-13.888-30.944-30.912 0-17.056 13.888-30.944 30.944-30.944s30.944 13.888 30.944 30.944c0 17.056-13.888 30.912-30.944 30.912zM558.944 678.727h-93.888c-8.832 0-16 7.168-16 16s7.168 16 16 16h93.888c8.832 0 16-7.168 16-16s-7.168-16-16-16z" />
<glyph unicode="&#xe619;" d="M745.664 263.111h-467.328c-44.128 0-80 35.904-80 80v224c0 44.096 35.872 80 80 80h467.328c44.128 0 80-35.904 80-80v-224c0-44.096-35.872-80-80-80zM278.336 615.111c-26.464 0-48-21.536-48-48v-224c0-26.464 21.536-48 48-48h467.328c26.464 0 48 21.536 48 48v224c0 26.464-21.536 48-48 48h-467.328zM697.152 384.423c-34.72 0-62.944 28.224-62.944 62.944s28.224 62.944 62.944 62.944 62.944-28.224 62.944-62.944-28.224-62.944-62.944-62.944zM697.152 478.311c-17.056 0-30.944-13.888-30.944-30.944s13.888-30.944 30.944-30.944 30.944 13.888 30.944 30.944-13.888 30.944-30.944 30.944zM272.416 392.167c-8.832 0-16 7.168-16 16v93.888c0 8.832 7.168 16 16 16s16-7.168 16-16v-93.888c0-8.832-7.168-16-16-16z" />
<glyph unicode="&#xe61a;" d="M817.76 615.111h-384c-26.464 0-48 21.536-48 48v64c0 26.464 21.536 48 48 48h384c26.464 0 48-21.536 48-48v-64c0-26.464-21.536-48-48-48zM433.76 743.111c-8.8 0-16-7.168-16-16v-64c0-8.832 7.2-16 16-16h384c8.8 0 16 7.168 16 16v64c0 8.832-7.2 16-16 16h-384zM289.76 615.111h-96c-26.464 0-48 21.536-48 48v64c0 26.464 21.536 48 48 48h96c26.464 0 48-21.536 48-48v-64c0-26.464-21.536-48-48-48zM193.76 743.111c-8.8 0-16-7.168-16-16v-64c0-8.832 7.2-16 16-16h96c8.8 0 16 7.168 16 16v64c0 8.832-7.2 16-16 16h-96zM817.76 403.911h-384c-26.464 0-48 21.536-48 48v64c0 26.464 21.536 48 48 48h384c26.464 0 48-21.536 48-48v-64c0-26.464-21.536-48-48-48zM433.76 531.911c-8.8 0-16-7.168-16-16v-64c0-8.832 7.2-16 16-16h384c8.8 0 16 7.168 16 16v64c0 8.832-7.2 16-16 16h-384zM289.76 403.911h-96c-26.464 0-48 21.536-48 48v64c0 26.464 21.536 48 48 48h96c26.464 0 48-21.536 48-48v-64c0-26.464-21.536-48-48-48zM193.76 531.911c-8.8 0-16-7.168-16-16v-64c0-8.832 7.2-16 16-16h96c8.8 0 16 7.168 16 16v64c0 8.832-7.2 16-16 16h-96zM817.76 160.711h-384c-26.464 0-48 21.536-48 48v64c0 26.464 21.536 48 48 48h384c26.464 0 48-21.536 48-48v-64c0-26.464-21.536-48-48-48zM433.76 288.711c-8.8 0-16-7.168-16-16v-64c0-8.832 7.2-16 16-16h384c8.8 0 16 7.168 16 16v64c0 8.832-7.2 16-16 16h-384zM289.76 160.711h-96c-26.464 0-48 21.536-48 48v64c0 26.464 21.536 48 48 48h96c26.464 0 48-21.536 48-48v-64c0-26.464-21.536-48-48-48zM193.76 288.711c-8.8 0-16-7.168-16-16v-64c0-8.832 7.2-16 16-16h96c8.8 0 16 7.168 16 16v64c0 8.832-7.2 16-16 16h-96z" />
<glyph unicode="&#xe61b;" d="M360.416 246.471c-3.456 0-6.944 1.12-9.856 3.392l-217.024 169.568c-3.904 3.040-6.176 7.68-6.176 12.64 0 4.928 2.272 9.568 6.144 12.608l222.592 173.44c6.976 5.408 17.024 4.224 22.464-2.784 5.44-6.976 4.192-17.024-2.784-22.464l-206.432-160.832 200.864-156.928c6.976-5.44 8.224-15.488 2.752-22.464-3.072-4.064-7.808-6.176-12.544-6.176zM627.36 246.471c-4.736 0-9.472 2.112-12.64 6.176-5.44 6.976-4.192 17.024 2.784 22.464l206.432 160.832-200.864 156.96c-6.976 5.44-8.224 15.488-2.752 22.464 5.44 7.040 15.52 8.192 22.432 2.752l217.024-169.568c3.904-3.040 6.144-7.68 6.144-12.64 0-4.928-2.272-9.568-6.144-12.608l-222.592-173.44c-2.912-2.272-6.368-3.392-9.824-3.392zM442.88 226.759c-1.536 0-3.104 0.224-4.672 0.672-8.448 2.592-13.216 11.52-10.656 19.968l116.224 382.464c2.56 8.448 11.392 13.248 19.968 10.656 8.448-2.592 13.216-11.52 10.656-19.968l-116.224-382.464c-2.080-6.88-8.416-11.328-15.296-11.328z" />
<glyph unicode="&#xe61c;" d="M830.048 159.111h-615.584c-44.128 0-80 35.904-80 80v412.8c0 44.096 35.872 80 80 80h615.584c44.128 0 80-35.904 80-80v-412.8c0-44.096-35.872-80-80-80zM214.464 699.911c-26.464 0-48-21.536-48-48v-412.8c0-26.464 21.536-48 48-48h615.584c26.464 0 48 21.536 48 48v412.8c0 26.464-21.536 48-48 48h-615.584zM319.36 463.015c-48.064 0-87.168 39.104-87.168 87.168s39.104 87.168 87.168 87.168 87.168-39.104 87.168-87.168-39.104-87.168-87.168-87.168zM319.36 605.319c-30.4 0-55.168-24.736-55.168-55.168s24.736-55.168 55.168-55.168 55.168 24.736 55.168 55.168-24.736 55.168-55.168 55.168zM294.272 168.711c-3.392 0-6.816 1.088-9.728 3.296-7.040 5.376-8.352 15.424-3.008 22.432l275.232 360c3.008 3.936 7.648 6.24 12.608 6.272 5.952 0.064 9.632-2.208 12.672-6.048l113.792-143.68 85.376 85.376c5.856 5.92 15.328 6.304 21.632 0.896l82.528-69.728c6.752-5.696 7.616-15.808 1.92-22.56-5.696-6.816-15.776-7.616-22.528-1.888l-71.328 60.224-87.68-87.68c-3.232-3.232-7.712-4.928-12.256-4.672s-8.768 2.464-11.584 6.016l-112.16 141.632-262.72-343.648c-3.2-4.096-7.936-6.24-12.768-6.24z" />
<glyph unicode="&#xe61d;" d="M297.376 508.551c-5.312 0-10.528 2.656-13.568 7.488-21.856 34.88-61.344 54.88-117.408 59.488-8.8 0.736-15.328 8.448-14.624 17.28 0.736 8.832 9.184 15.040 17.248 14.656 83.040-6.848 123.008-44.224 141.92-74.4 4.672-7.488 2.4-17.344-5.056-22.048-2.656-1.664-5.6-2.464-8.512-2.464zM149.984 182.727c-2.912 0-5.824 0.064-8.736 0.256-8.832 0.48-15.584 8.032-15.104 16.864 0.512 8.8 8.512 15.104 16.832 15.072 62.432-3.232 107.072 41.056 128.256 67.872 5.504 6.976 15.584 8.064 22.464 2.624 6.944-5.472 8.128-15.52 2.656-22.464-24.096-30.496-74.432-80.224-146.368-80.224zM91.712 373.511c-6.24 0-12.16 3.68-14.752 9.792-3.424 8.16 0.416 17.536 8.544 20.96 30.4 12.8 115.456 8.64 181.568 2.88 8.8-0.768 15.328-8.512 14.56-17.344-0.736-8.8-8.48-15.36-17.312-14.56-84.512 7.36-148.256 7.168-166.368-0.512-2.048-0.8-4.16-1.216-6.24-1.216zM731.712 508.551c-2.912 0-5.856 0.768-8.512 2.432-7.456 4.704-9.76 14.592-5.056 22.048 18.912 30.176 58.88 67.552 141.92 74.4 8.672 0.672 16.544-5.856 17.248-14.656s-5.824-16.544-14.624-17.28c-56.064-4.608-95.552-24.64-117.408-59.488-3.040-4.8-8.256-7.456-13.568-7.456zM879.136 182.727c-72 0-122.304 49.76-146.368 80.224-5.472 6.944-4.288 16.992 2.656 22.464 6.912 5.472 16.96 4.32 22.464-2.656 21.152-26.848 66.272-71.2 128.256-67.872 8.992 0 16.384-6.272 16.832-15.072 0.512-8.832-6.24-16.384-15.104-16.864-2.944-0.16-5.888-0.224-8.736-0.224zM937.376 373.511c-2.048 0-4.192 0.416-6.208 1.248-18.144 7.68-82.016 7.84-166.368 0.512-8.8-0.608-16.576 5.728-17.312 14.56-0.768 8.8 5.76 16.576 14.56 17.344 65.984 5.76 151.104 9.92 181.568-2.88 8.128-3.424 11.968-12.8 8.544-20.96-2.592-6.144-8.544-9.824-14.784-9.824zM660.224 655.303c-2.272 0-4.544 0.48-6.656 1.44-4.16 1.888-7.296 5.472-8.64 9.856-13.344 43.328-47.2 77.184-90.56 90.528-4.352 1.344-7.936 4.512-9.856 8.672-1.888 4.16-1.92 8.928-0.064 13.088 14.88 33.664 48.192 55.424 84.864 55.424 51.168 0 92.768-41.632 92.768-92.8 0-36.672-21.76-70.016-55.392-84.832-2.048-0.896-4.288-1.376-6.464-1.376zM582.848 780.583c38.080-16.96 68.576-47.424 85.536-85.536 13.536 11.36 21.728 28.288 21.728 46.464 0 33.504-27.296 60.8-60.768 60.8-18.208 0-35.136-8.16-46.496-21.728zM514.080 101.511c-151.904 0-257.984 114.304-257.984 278.016 0 11.52 0.768 23.232 2.272 34.816 19.744 150.016 117.728 243.2 255.712 243.2s235.968-93.184 255.744-243.168c1.504-11.456 2.24-23.2 2.24-34.848 0.032-163.712-106.080-278.016-257.984-278.016zM514.080 625.511c-122.496 0-206.24-80.512-223.968-215.36-1.344-10.208-2.016-20.512-2.016-30.656 0-122.464 69.888-246.016 225.984-246.016s225.984 123.552 225.984 246.016c0 10.4-0.672 20.64-1.984 30.656-17.728 134.88-101.472 215.36-224 215.36zM368 655.303c-2.176 0-4.416 0.448-6.464 1.344-33.696 14.88-55.456 48.192-55.456 84.864 0 51.168 41.632 92.8 92.8 92.8 36.672 0 70.016-21.76 84.832-55.424 1.856-4.16 1.824-8.928-0.064-13.088-1.92-4.16-5.472-7.296-9.856-8.672-43.328-13.344-77.216-47.2-90.56-90.528-1.344-4.384-4.48-7.968-8.64-9.856-2.048-0.96-4.32-1.44-6.592-1.44zM398.912 802.311c-33.536 0-60.8-27.296-60.8-60.8 0-18.176 8.192-35.104 21.76-46.464 16.96 38.080 47.424 68.576 85.536 85.536-11.392 13.568-28.32 21.728-46.496 21.728zM663.296 575.111c-3.648 0-7.296 1.28-10.176 3.648-37.6 31.008-84.384 46.72-139.008 46.72-54.592 0-101.376-15.712-138.976-46.72-4.288-3.52-10.048-4.544-15.328-2.816-5.248 1.76-9.184 6.112-10.464 11.52-3.264 13.952-4.832 26.656-4.832 38.816 0 93.504 76.096 169.6 169.6 169.6 93.536 0 169.632-76.064 169.632-169.6 0-12.16-1.6-24.864-4.832-38.816-1.28-5.376-5.216-9.76-10.464-11.52-1.728-0.544-3.456-0.832-5.152-0.832zM514.080 657.511c52.16 0 98.24-12.768 137.408-38.016 0.16 2.304 0.224 4.576 0.224 6.784 0 75.872-61.76 137.6-137.632 137.6s-137.6-61.728-137.6-137.6c0-2.24 0.064-4.48 0.224-6.784 39.168 25.248 85.28 38.016 137.376 38.016z" />
<glyph unicode="&#xe61e;" d="M243.328 364.775c-49.824 0-90.336 40.512-90.336 90.336s40.512 90.336 90.336 90.336 90.336-40.512 90.336-90.336-40.512-90.336-90.336-90.336zM243.328 513.447c-32.16 0-58.336-26.176-58.336-58.336s26.176-58.336 58.336-58.336 58.336 26.176 58.336 58.336-26.176 58.336-58.336 58.336zM512 364.775c-49.824 0-90.336 40.512-90.336 90.336s40.512 90.336 90.336 90.336 90.336-40.512 90.336-90.336-40.512-90.336-90.336-90.336zM512 513.447c-32.16 0-58.336-26.176-58.336-58.336s26.176-58.336 58.336-58.336 58.336 26.176 58.336 58.336-26.176 58.336-58.336 58.336zM780.672 364.775c-49.824 0-90.336 40.512-90.336 90.336s40.512 90.336 90.336 90.336 90.336-40.512 90.336-90.336-40.512-90.336-90.336-90.336zM780.672 513.447c-32.16 0-58.336-26.176-58.336-58.336s26.176-58.336 58.336-58.336 58.336 26.176 58.336 58.336-26.176 58.336-58.336 58.336z" />
<glyph unicode="&#xe61f;" d="M512 630.247c-49.824 0-90.336 40.512-90.336 90.336s40.512 90.336 90.336 90.336 90.336-40.544 90.336-90.336-40.512-90.336-90.336-90.336zM512 778.919c-32.16 0-58.336-26.176-58.336-58.336s26.176-58.336 58.336-58.336 58.336 26.176 58.336 58.336c0 32.16-26.176 58.336-58.336 58.336zM512 364.775c-49.824 0-90.336 40.512-90.336 90.336s40.512 90.336 90.336 90.336 90.336-40.512 90.336-90.336-40.512-90.336-90.336-90.336zM512 513.447c-32.16 0-58.336-26.176-58.336-58.336s26.176-58.336 58.336-58.336 58.336 26.176 58.336 58.336-26.176 58.336-58.336 58.336zM512 99.303c-49.824 0-90.336 40.544-90.336 90.336s40.512 90.336 90.336 90.336 90.336-40.512 90.336-90.336-40.512-90.336-90.336-90.336zM512 247.975c-32.16 0-58.336-26.176-58.336-58.336s26.176-58.336 58.336-58.336 58.336 26.176 58.336 58.336c0 32.16-26.176 58.336-58.336 58.336z" />
<glyph unicode="&#xe620;" d="M496 151.111c-8.832 0-16 7.168-16 16v576c0 8.832 7.168 16 16 16s16-7.168 16-16v-576c0-8.832-7.168-16-16-16zM639.712 598.823c-4.096 0-8.192 1.568-11.328 4.672l-143.84 143.872c-6.24 6.24-6.24 16.384 0 22.624s16.384 6.24 22.624 0l143.84-143.872c6.24-6.24 6.24-16.384 0-22.624-3.104-3.104-7.2-4.672-11.296-4.672zM352 598.823c-4.096 0-8.192 1.568-11.328 4.672-6.24 6.24-6.24 16.384 0 22.624l143.872 143.872c6.24 6.24 16.384 6.24 22.624 0s6.24-16.384 0-22.624l-143.872-143.872c-3.104-3.104-7.2-4.672-11.296-4.672z" />
<glyph unicode="&#xe621;" d="M800 455.111h-576c-8.832 0-16 7.168-16 16s7.168 16 16 16h576c8.832 0 16-7.168 16-16s-7.168-16-16-16zM815.712 454.823c-4.096 0-8.192 1.568-11.328 4.672l-135.936 135.936c-6.24 6.24-6.24 16.384 0 22.624s16.384 6.24 22.624 0l135.936-135.936c6.24-6.24 6.24-16.384 0-22.624-3.104-3.104-7.2-4.672-11.296-4.672zM679.776 318.887c-4.096 0-8.192 1.568-11.328 4.672-6.24 6.24-6.24 16.384 0 22.624l135.936 135.936c6.24 6.24 16.384 6.24 22.624 0s6.24-16.384 0-22.624l-135.936-135.936c-3.104-3.104-7.2-4.672-11.296-4.672z" />
<glyph unicode="&#xe622;" d="M800 455.111h-576c-8.832 0-16 7.168-16 16s7.168 16 16 16h576c8.832 0 16-7.168 16-16s-7.168-16-16-16zM344.224 318.887c-4.096 0-8.192 1.568-11.328 4.672l-135.936 135.936c-6.24 6.24-6.24 16.384 0 22.624s16.384 6.24 22.624 0l135.936-135.936c6.24-6.24 6.24-16.384 0-22.624-3.104-3.104-7.2-4.672-11.296-4.672zM208.288 454.823c-4.096 0-8.192 1.568-11.328 4.672-6.24 6.24-6.24 16.384 0 22.624l135.936 135.936c6.24 6.24 16.384 6.24 22.624 0s6.24-16.384 0-22.624l-135.936-135.936c-3.104-3.104-7.2-4.672-11.296-4.672z" />
<glyph unicode="&#xe623;" d="M528 151.111c-8.832 0-16 7.168-16 16v576c0 8.832 7.168 16 16 16s16-7.168 16-16v-576c0-8.832-7.168-16-16-16zM527.84 135.559c-4.096 0-8.192 1.568-11.328 4.672l-143.84 143.872c-6.24 6.24-6.24 16.384 0 22.624s16.384 6.24 22.624 0l143.84-143.872c6.24-6.24 6.24-16.384 0-22.624-3.104-3.136-7.2-4.672-11.296-4.672zM527.84 135.559c-4.096 0-8.192 1.568-11.328 4.672-6.24 6.24-6.24 16.384 0 22.624l143.872 143.872c6.24 6.24 16.384 6.24 22.624 0s6.24-16.384 0-22.624l-143.872-143.872c-3.104-3.136-7.2-4.672-11.296-4.672z" />
<glyph unicode="&#xe624;" d="M527.712 151.111c-8.832 0-16 7.168-16 16v576c0 8.832 7.168 16 16 16s16-7.168 16-16v-576c0-8.832-7.136-16-16-16zM527.84 135.559c-4.096 0-8.192 1.568-11.328 4.672l-143.84 143.872c-6.24 6.24-6.24 16.384 0 22.624s16.384 6.24 22.624 0l143.84-143.872c6.24-6.24 6.24-16.384 0-22.624-3.104-3.136-7.2-4.672-11.296-4.672zM527.84 135.559c-4.096 0-8.192 1.568-11.328 4.672-6.24 6.24-6.24 16.384 0 22.624l143.872 143.872c6.24 6.24 16.384 6.24 22.624 0s6.24-16.384 0-22.624l-143.872-143.872c-3.104-3.136-7.2-4.672-11.296-4.672zM671.712 599.111c-4.096 0-8.192 1.568-11.328 4.672l-143.872 143.872c-6.24 6.24-6.24 16.384 0 22.624s16.384 6.24 22.624 0l143.872-143.872c6.24-6.24 6.24-16.384 0-22.624-3.104-3.104-7.2-4.672-11.296-4.672zM384 599.111c-4.096 0-8.192 1.568-11.328 4.672-6.24 6.24-6.24 16.384 0 22.624l143.84 143.872c6.24 6.24 16.384 6.24 22.624 0s6.24-16.384 0-22.624l-143.84-143.872c-3.104-3.104-7.2-4.672-11.296-4.672z" />
<glyph unicode="&#xe625;" d="M815.552 423.399h-576c-8.832 0-16 7.168-16 16s7.168 16 16 16h576c8.832 0 16-7.168 16-16s-7.136-16-16-16zM208.16 423.239c-4.096 0-8.192 1.568-11.328 4.672-6.24 6.24-6.24 16.384 0 22.624l143.84 143.872c6.24 6.24 16.384 6.24 22.624 0s6.24-16.384 0-22.624l-143.84-143.872c-3.104-3.104-7.2-4.672-11.296-4.672zM352 279.399c-4.096 0-8.192 1.568-11.328 4.672l-143.84 143.84c-6.24 6.24-6.24 16.384 0 22.624s16.384 6.24 22.624 0l143.84-143.84c6.24-6.24 6.24-16.384 0-22.624-3.104-3.104-7.2-4.672-11.296-4.672zM672 279.399c-4.096 0-8.192 1.568-11.328 4.672-6.24 6.24-6.24 16.384 0 22.624l143.84 143.84c6.24 6.24 16.384 6.24 22.624 0s6.24-16.384 0-22.624l-143.84-143.84c-3.104-3.104-7.2-4.672-11.296-4.672zM815.84 423.239c-4.096 0-8.192 1.568-11.328 4.672l-143.84 143.872c-6.24 6.24-6.24 16.384 0 22.624s16.384 6.24 22.624 0l143.84-143.872c6.24-6.24 6.24-16.384 0-22.624-3.104-3.104-7.2-4.672-11.296-4.672z" />
<glyph unicode="&#xe626;" d="M512 528.871c-8.832 0-16 7.168-16 16v206.784c0 8.832 7.168 16 16 16s16-7.168 16-16v-206.784c0-8.864-7.168-16-16-16zM624.864 634.343c-4.096 0-8.192 1.568-11.328 4.672l-101.536 101.6-101.568-101.568c-6.24-6.24-16.384-6.24-22.624 0s-6.24 16.384 0 22.624l112.864 112.896c6.016 6.016 16.64 6.016 22.624 0l112.864-112.896c6.24-6.24 6.24-16.384 0-22.624-3.104-3.136-7.2-4.704-11.296-4.704zM512 142.567c-8.832 0-16 7.168-16 16v206.784c0 8.832 7.168 16 16 16s16-7.168 16-16v-206.784c0-8.832-7.168-16-16-16zM512 130.983c-4.256 0-8.32 1.696-11.328 4.672l-112.864 112.896c-6.24 6.24-6.24 16.384 0 22.624s16.384 6.24 22.624 0l101.568-101.568 101.568 101.568c6.24 6.24 16.384 6.24 22.624 0s6.24-16.384 0-22.624l-112.864-112.896c-3.008-2.976-7.072-4.672-11.328-4.672zM808.544 439.111h-206.784c-8.832 0-16 7.168-16 16s7.168 16 16 16h206.784c8.832 0 16-7.168 16-16s-7.168-16-16-16zM707.232 326.215c-4.096 0-8.192 1.568-11.328 4.672-6.24 6.24-6.24 16.384 0 22.624l101.6 101.6-101.6 101.568c-6.24 6.24-6.24 16.384 0 22.624s16.384 6.24 22.624 0l112.896-112.896c3.008-3.008 4.672-7.072 4.672-11.328s-1.696-8.32-4.672-11.328l-112.896-112.896c-3.136-3.072-7.2-4.64-11.296-4.64zM422.24 439.111h-206.784c-8.832 0-16 7.168-16 16s7.168 16 16 16h206.784c8.832 0 16-7.168 16-16s-7.136-16-16-16zM316.768 326.215c-4.096 0-8.192 1.568-11.328 4.672l-112.896 112.896c-2.976 3.008-4.672 7.072-4.672 11.328s1.696 8.32 4.672 11.328l112.896 112.896c6.24 6.24 16.384 6.24 22.624 0s6.24-16.384 0-22.624l-101.568-101.6 101.6-101.568c6.24-6.24 6.24-16.384 0-22.624-3.136-3.136-7.232-4.704-11.328-4.704z" />
<glyph unicode="&#xe627;" d="M546.528 473.959c-4.096 0-8.192 1.568-11.328 4.672-6.24 6.24-6.24 16.384 0 22.624l225.44 225.44c6.24 6.24 16.384 6.24 22.624 0s6.24-16.384 0-22.624l-225.44-225.44c-3.104-3.104-7.2-4.672-11.296-4.672zM250.336 177.767c-4.096 0-8.192 1.568-11.328 4.672-6.24 6.24-6.24 16.384 0 22.624l225.44 225.408c6.24 6.24 16.384 6.24 22.624 0s6.24-16.384 0-22.624l-225.44-225.408c-3.104-3.104-7.2-4.672-11.296-4.672zM781.024 510.855c-8.832 0-16 7.168-16 16v181.6h-181.6c-8.832 0-16 7.168-16 16s7.168 16 16 16h197.6c8.832 0 16-7.168 16-16v-197.568c0-8.864-7.136-16.032-16-16.032zM436.256 169.863h-193.824c-8.832 0-16 7.168-16 16v193.824c0 8.832 7.168 16 16 16s16-7.168 16-16v-177.824h177.824c8.832 0 16-7.168 16-16s-7.168-16-16-16z" />
<glyph unicode="&#xe628;" d="M880 135.111h-736c-8.832 0-16 7.168-16 16v446.080c0 1.152 0.128 2.304 0.384 3.424l28.512 129.92c1.6 7.328 8.096 12.576 15.616 12.576h272c6.88 0 12.992-4.416 15.168-10.944l28.352-85.056h391.968c8.832 0 16-7.168 16-16v-480c0-8.832-7.168-16-16-16zM160 167.111h704v448h-387.488c-6.88 0-12.992 4.416-15.168 10.944l-28.384 85.056h-247.584l-25.376-115.648v-428.352z" />
<glyph unicode="&#xe629;" d="M811.232 519.111h-590.016c-4.448 0-8.672 1.856-11.68 5.088s-4.576 7.584-4.288 12l6.016 88.992 12 103.776c0.928 8.064 7.744 14.144 15.872 14.144h236.448c6.368 0 12.128-3.776 14.656-9.632l23.648-54.368h289.344c8.448 0 15.424-6.56 15.968-15.008l8-128c0.288-4.416-1.28-8.736-4.32-11.968-3.008-3.2-7.232-5.024-11.648-5.024zM238.304 551.111h555.872l-6.016 96h-284.768c-6.368 0-12.128 3.776-14.656 9.632l-23.648 54.368h-211.712l-10.272-88.832-4.8-71.168zM851.232 135.111h-656c-8.064 0-14.88 6.016-15.872 14.016l-48 384c-0.576 4.544 0.832 9.152 3.872 12.576s7.392 5.408 12 5.408h736c4.48 0 8.736-1.888 11.776-5.184 3.008-3.296 4.544-7.712 4.16-12.16l-32-384c-0.704-8.288-7.616-14.656-15.936-14.656zM209.344 167.111h627.168l29.344 352h-700.512l44-352z" />
<glyph unicode="&#xe62a;" d="M816 71.111h-448c-8.832 0-16 7.168-16 16v96c0 8.832 7.168 16 16 16h336v496c0 8.832 7.168 16 16 16h96c8.832 0 16-7.168 16-16v-608c0-8.832-7.168-16-16-16zM384 103.111h416v576h-64v-496c0-8.832-7.168-16-16-16h-336v-64zM512 679.111h-224c-8.832 0-16 7.168-16 16s7.168 16 16 16h224c8.832 0 16-7.168 16-16s-7.168-16-16-16zM512 615.111h-224c-8.832 0-16 7.168-16 16s7.168 16 16 16h224c8.832 0 16-7.168 16-16s-7.168-16-16-16zM512 551.111h-224c-8.832 0-16 7.168-16 16s7.168 16 16 16h224c8.832 0 16-7.168 16-16s-7.168-16-16-16zM384 487.111h-96c-8.832 0-16 7.168-16 16s7.168 16 16 16h96c8.832 0 16-7.168 16-16s-7.168-16-16-16zM720 167.111h-448c-8.832 0-16 7.168-16 16v96c0 8.832 7.168 16 16 16h336v464c0 8.832 7.168 16 16 16h96c8.832 0 16-7.168 16-16v-576c0-8.832-7.168-16-16-16zM288 199.111h416v544h-64v-464c0-8.832-7.168-16-16-16h-336v-64zM624 263.111h-448c-8.832 0-16 7.168-16 16v544c0 8.832 7.168 16 16 16h448c8.832 0 16-7.168 16-16v-544c0-8.832-7.168-16-16-16zM192 295.111h416v512h-416v-512z" />
<glyph unicode="&#xe62b;" d="M816 71.111h-608c-8.832 0-16 7.168-16 16v736c0 8.832 7.168 16 16 16h608c8.832 0 16-7.168 16-16v-736c0-8.832-7.168-16-16-16zM224 103.111h576v704h-576v-704zM672 679.111h-320c-8.832 0-16 7.168-16 16s7.168 16 16 16h320c8.832 0 16-7.168 16-16s-7.168-16-16-16zM672 583.111h-320c-8.832 0-16 7.168-16 16s7.168 16 16 16h320c8.832 0 16-7.168 16-16s-7.168-16-16-16zM672 487.111h-320c-8.832 0-16 7.168-16 16s7.168 16 16 16h320c8.832 0 16-7.168 16-16s-7.168-16-16-16zM672 391.111h-320c-8.832 0-16 7.168-16 16s7.168 16 16 16h320c8.832 0 16-7.168 16-16s-7.168-16-16-16zM512 295.111h-160c-8.832 0-16 7.168-16 16s7.168 16 16 16h160c8.832 0 16-7.168 16-16s-7.168-16-16-16z" />
<glyph unicode="&#xe62c;" d="M432.192 338.055c-3.424 0-6.912 1.12-9.824 3.392l-127.040 99.264c-3.904 3.040-6.144 7.68-6.144 12.64 0 4.928 2.272 9.568 6.176 12.608l130.304 101.536c6.944 5.408 16.992 4.192 22.464-2.784 5.408-6.976 4.192-17.024-2.784-22.464l-114.112-88.928 110.88-86.656c6.976-5.44 8.192-15.488 2.752-22.464-3.2-4.032-7.904-6.144-12.672-6.144zM588.544 338.055c-4.768 0-9.472 2.112-12.64 6.176-5.408 6.976-4.192 17.024 2.784 22.464l114.112 88.928-110.88 86.656c-6.976 5.44-8.192 15.488-2.752 22.464 5.408 6.976 15.456 8.224 22.464 2.752l127.072-99.296c3.904-3.040 6.144-7.68 6.144-12.64 0-4.928-2.272-9.568-6.176-12.608l-130.304-101.536c-2.944-2.272-6.368-3.36-9.824-3.36zM480.512 326.503c-1.536 0-3.104 0.224-4.672 0.672-8.448 2.592-13.216 11.488-10.656 19.968l68 223.936c2.56 8.448 11.392 13.248 19.968 10.656 8.448-2.592 13.216-11.488 10.656-19.968l-68-223.936c-2.080-6.88-8.448-11.328-15.296-11.328zM816 71.111h-608c-8.832 0-16 7.168-16 16v736c0 8.832 7.168 16 16 16h608c8.832 0 16-7.168 16-16v-736c0-8.832-7.168-16-16-16zM224 103.111h576v704h-576v-704z" />
<glyph unicode="&#xe62d;" d="M784 103.111h-448c-8.832 0-16 7.168-16 16v128c0 8.832 7.168 16 16 16h304v400c0 8.832 7.168 16 16 16h128c8.832 0 16-7.168 16-16v-544c0-8.832-7.168-16-16-16zM352 135.111h416v512h-96v-400c0-8.832-7.168-16-16-16h-304v-96zM544 647.111h-224c-8.832 0-16 7.168-16 16s7.168 16 16 16h224c8.832 0 16-7.168 16-16s-7.168-16-16-16zM544 583.111h-224c-8.832 0-16 7.168-16 16s7.168 16 16 16h224c8.832 0 16-7.168 16-16s-7.168-16-16-16zM544 519.111h-224c-8.832 0-16 7.168-16 16s7.168 16 16 16h224c8.832 0 16-7.168 16-16s-7.168-16-16-16zM416 455.111h-96c-8.832 0-16 7.168-16 16s7.168 16 16 16h96c8.832 0 16-7.168 16-16s-7.168-16-16-16zM656 231.111h-448c-8.832 0-16 7.168-16 16v544c0 8.832 7.168 16 16 16h448c8.832 0 16-7.168 16-16v-544c0-8.832-7.168-16-16-16zM224 263.111h416v512h-416v-512z" />
<glyph unicode="&#xe62e;" d="M816 71.111h-608c-8.832 0-16 7.168-16 16v640c0 8.832 7.168 16 16 16h80c8.832 0 16-7.168 16-16s-7.168-16-16-16h-64v-608h576v608h-64c-8.832 0-16 7.168-16 16s7.168 16 16 16h80c8.832 0 16-7.168 16-16v-640c0-8.832-7.168-16-16-16zM720 647.111h-416c-8.832 0-16 7.168-16 16v128c0 8.832 7.168 16 16 16h105.216c7.712 49.792 50.88 88 102.784 88s95.072-38.208 102.784-88h105.216c8.832 0 16-7.168 16-16v-128c0-8.832-7.168-16-16-16zM320 679.111h384v96h-104c-8.832 0-16 7.168-16 16 0 39.712-32.32 72-72 72s-72-32.288-72-72c0-8.832-7.168-16-16-16h-104v-96z" />
<glyph unicode="&#xe62f;" d="M576.512 417.383v0c-6.528 0-12.416 3.968-14.848 10.016l-65.984 164.192c-1.536 3.84-1.536 8.096 0 11.936l103.552 257.632c1.856 4.544 5.664 8 10.336 9.376 4.8 1.376 9.824 0.512 13.824-2.336 8.8-6.272 86.368-63.040 95.744-116.512 0.544-2.944 0.224-5.984-0.896-8.736l-126.88-315.552c-2.464-6.048-8.32-10.016-14.848-10.016zM527.744 597.575l48.736-121.312 110.176 274.016c-7.488 26.88-41.696 59.648-65.664 79.328l-93.248-232.032zM344.512 91.431c-17.728 0-35.072 2.752-51.552 8.16-37.088 12.192-66.976 39.136-84.032 75.84-18.528 39.808-19.744 86.080-3.328 126.976 23.84 59.328 80.576 97.632 144.48 97.632 19.872 0 39.392-3.776 57.984-11.264 0.384-0.128 0.704-0.288 1.056-0.448l20.544 51.008c2.432 6.048 8.32 10.016 14.848 10.016v0c6.528 0 12.416-3.968 14.848-10.016l65.984-164.192c1.536-3.84 1.536-8.096 0-11.936l-30.912-76.896c-26.944-58.784-84.288-94.88-149.92-94.88zM350.048 368.071c-50.784 0-95.84-30.432-114.784-77.568-13.152-32.704-12.192-69.728 2.624-101.536 13.312-28.608 36.416-49.536 65.024-58.944 13.248-4.352 27.264-6.592 41.568-6.592 52.992 0 99.2 28.928 120.576 75.52l28.192 70.24-48.736 121.312-12.288-30.528c-1.728-4.256-5.152-7.584-9.472-9.12-4.352-1.536-9.088-1.152-13.12 1.088l-3.744 2.112c-3.168 1.792-6.24 3.648-9.728 5.024-14.816 5.984-30.304 8.992-46.112 8.992zM349.248 175.303c-0.288 0-3.232 0.064-3.488 0.064-37.696 1.888-66.848 34.080-64.96 71.84 1.856 36.512 31.872 65.056 68.352 65.056 0.288 0 3.232-0.064 3.488-0.064 18.24-0.896 35.104-8.896 47.36-22.464s18.496-31.104 17.6-49.376c-1.824-36.48-31.84-65.056-68.352-65.056zM349.12 296.295v-16c-19.392 0-35.392-15.232-36.416-34.656-0.992-20.096 14.528-37.248 34.624-38.24 0.032 0 0.096 0 0.128 0 21.28 0 37.216 15.2 38.176 34.624 0.48 9.728-2.88 19.072-9.408 26.304s-15.488 11.456-25.216 11.968l-1.888 16zM349.248 175.303v0c-0.288 0-3.232 0.064-3.488 0.064-37.696 1.888-66.848 34.080-64.96 71.84 1.856 36.512 31.872 65.056 68.352 65.056 0.288 0 3.232-0.064 3.488-0.064 18.24-0.896 35.104-8.896 47.36-22.464s18.496-31.104 17.6-49.376c-1.824-36.48-31.808-65.056-68.352-65.056zM350.912 280.231c-21.248 0-37.184-15.2-38.176-34.624-0.992-20.096 14.528-37.248 34.624-38.24l1.92-16.032v16c19.424 0 35.424 15.232 36.416 34.656 0.48 9.728-2.88 19.072-9.408 26.304s-15.488 11.456-25.216 11.968c-0.064-0.032-0.128-0.032-0.16-0.032zM671.744 175.303c-36.48 0-66.496 28.576-68.352 65.056-1.888 37.76 27.296 69.984 64.992 71.84 0.256 0 3.2 0.064 3.456 0.064 36.48 0 66.496-28.576 68.352-65.056 1.888-37.76-27.296-69.984-64.992-71.84-0.224 0-3.168-0.064-3.456-0.064zM671.872 280.295c-22.016-1.056-37.536-18.208-36.544-38.304 0.992-19.424 16.992-34.656 36.416-34.656v-16l1.888 16.032c20.128 0.992 35.648 18.144 34.656 38.272-0.992 19.424-16.992 34.656-36.416 34.656zM474.72 355.431c-5.952 0-11.616 3.328-14.4 9.024-3.84 7.968-0.544 17.504 7.424 21.376l107.52 52.16c7.84 3.808 17.504 0.544 21.376-7.392 3.84-7.968 0.544-17.504-7.424-21.376l-107.52-52.16c-2.24-1.12-4.64-1.632-6.976-1.632zM676.544 91.431v0c-65.696 0-123.040 36.096-149.664 94.176l-224.096 557.376c-1.12 2.752-1.44 5.792-0.896 8.736 9.376 53.472 86.944 110.208 95.744 116.512 4 2.848 9.024 3.712 13.824 2.336 4.672-1.376 8.512-4.832 10.336-9.376l190.080-472.8c0.352 0.16 0.704 0.288 1.088 0.448 18.56 7.456 38.080 11.264 57.984 11.264 63.904 0 120.64-38.304 144.48-97.632 16.448-40.864 15.264-87.168-3.296-126.944-17.056-36.736-46.912-63.68-84.032-75.872-16.512-5.472-33.856-8.224-51.552-8.224zM334.304 750.311l221.952-552.032c21.056-45.888 67.264-74.816 120.288-74.816v0c14.304 0 28.32 2.208 41.568 6.592 28.64 9.408 51.712 30.336 65.024 58.976 14.816 31.808 15.744 68.8 2.592 101.504-18.944 47.136-64 77.568-114.784 77.568-15.776 0-31.296-3.008-46.048-8.96-3.488-1.376-6.592-3.232-9.76-5.024l-3.744-2.112c-4.032-2.208-8.768-2.624-13.12-1.088-4.32 1.536-7.744 4.864-9.472 9.12l-188.8 469.632c-24-19.776-58.208-52.576-65.696-79.36zM671.744 175.303c-36.48 0-66.496 28.576-68.352 65.056-0.896 18.304 5.344 35.84 17.6 49.376 12.288 13.568 29.12 21.536 47.392 22.464 0.256 0 3.2 0.064 3.456 0.064 36.48 0 66.496-28.576 68.352-65.056 1.888-37.76-27.296-69.984-64.992-71.84-0.224 0-3.168-0.064-3.456-0.064zM671.872 280.295c-11.616-0.544-20.608-4.768-27.136-12s-9.888-16.576-9.408-26.304c0.992-19.424 16.992-34.656 36.416-34.656v-16l1.888 16.032c20.128 0.992 35.648 18.144 34.656 38.272-0.992 19.424-16.992 34.656-36.416 34.656z" />
<glyph unicode="&#xe630;" d="M781.28 169.799c-4.096 0-8.192 1.568-11.328 4.672l-193.408 193.44c-6.24 6.24-6.24 16.384 0 22.624s16.384 6.24 22.624 0l193.408-193.44c6.24-6.24 6.24-16.384 0-22.624-3.104-3.104-7.2-4.672-11.296-4.672zM455.328 495.783c-4.096 0-8.192 1.568-11.328 4.672l-212.608 212.64c-6.24 6.24-6.24 16.384 0 22.624s16.384 6.24 22.624 0l212.64-212.64c6.24-6.24 6.24-16.384 0-22.624-3.136-3.136-7.232-4.672-11.328-4.672zM560 215.111c-8.832 0-16 7.168-16 16v176c0 8.832 7.168 16 16 16h176c8.832 0 16-7.168 16-16s-7.168-16-16-16h-160v-160c0-8.832-7.168-16-16-16zM464 487.111h-176c-8.832 0-16 7.168-16 16s7.168 16 16 16h160v160c0 8.832 7.168 16 16 16s16-7.168 16-16v-176c0-8.832-7.168-16-16-16z" />
<glyph unicode="&#xe631;" d="M771.968 178.887c-4.096 0-8.192 1.568-11.328 4.672l-225.44 225.408c-6.24 6.24-6.24 16.384 0 22.624s16.384 6.24 22.624 0l225.44-225.408c6.24-6.24 6.24-16.384 0-22.624-3.104-3.104-7.2-4.672-11.296-4.672zM475.776 475.079c-4.096 0-8.192 1.568-11.328 4.672l-225.408 225.44c-6.24 6.24-6.24 16.384 0 22.624s16.384 6.24 22.624 0l225.44-225.44c6.24-6.24 6.24-16.384 0-22.624-3.136-3.136-7.232-4.672-11.328-4.672zM781.024 169.799h-197.6c-8.832 0-16 7.168-16 16s7.168 16 16 16h181.6v181.6c0 8.832 7.168 16 16 16s16-7.168 16-16v-197.6c0-8.832-7.136-16-16-16zM242.432 514.599c-8.832 0-16 7.168-16 16v193.824c0 8.832 7.168 16 16 16h193.824c8.832 0 16-7.168 16-16s-7.168-16-16-16h-177.824v-177.824c0-8.832-7.136-16-16-16z" />
<glyph unicode="&#xe632;" d="M444.48 303.367c0 0 0 0 0 0-7.488 0-13.984 5.184-15.616 12.512-18.112 80.416-116.896 126.144-117.888 126.624-8.032 3.648-11.584 13.12-7.936 21.184 3.648 8.032 13.056 11.584 21.184 7.936 3.872-1.76 80.64-37.344 118.624-104.608 24.32 64.704 85.664 188.608 223.456 293.408 7.008 5.312 17.12 3.936 22.432-3.072 5.344-7.040 4-17.056-3.040-22.432-183.2-139.296-225.216-317.312-225.6-319.104-1.664-7.264-8.16-12.448-15.616-12.448z" />
<glyph unicode="&#xe633;" d="M645.792 293.703c-4.096 0-8.192 1.568-11.328 4.672l-283.584 283.584c-6.24 6.24-6.24 16.384 0 22.624s16.384 6.24 22.624 0l283.584-283.584c6.24-6.24 6.24-16.384 0-22.624-3.104-3.104-7.2-4.672-11.296-4.672zM362.208 293.703c-4.096 0-8.192 1.568-11.328 4.672-6.24 6.24-6.24 16.384 0 22.624l283.584 283.584c6.24 6.24 16.384 6.24 22.624 0s6.24-16.384 0-22.624l-283.584-283.584c-3.104-3.104-7.2-4.672-11.296-4.672z" />
<glyph unicode="&#xe634;" d="M471.168 306.983c0 0 0 0 0 0-7.488 0.032-13.984 5.184-15.616 12.512-14.912 66.144-96.96 104.416-97.792 104.768-8.032 3.68-11.584 13.152-7.904 21.184 3.68 8.064 13.12 11.584 21.184 7.936 3.2-1.472 65.088-30.144 98.272-84.512 21.824 55.968 73.984 157.152 186.976 243.104 7.040 5.312 17.088 3.936 22.432-3.072 5.344-7.040 4-17.056-3.040-22.432-152.896-116.256-188.576-265.568-188.896-267.072-1.664-7.232-8.128-12.416-15.616-12.416zM512 131.111c-178.656 0-324 145.344-324 324s145.344 324 324 324 324-145.344 324-324-145.344-324-324-324zM512 747.111c-161.024 0-292-131.008-292-292s130.976-292 292-292 292 131.008 292 292-130.976 292-292 292z" />
<glyph unicode="&#xe635;" d="M632 319.111c-4.096 0-8.192 1.568-11.328 4.672l-240 240c-6.24 6.24-6.24 16.384 0 22.624s16.384 6.24 22.624 0l240-240c6.24-6.24 6.24-16.384 0-22.624-3.104-3.104-7.2-4.672-11.296-4.672zM392 319.111c-4.096 0-8.192 1.568-11.328 4.672-6.24 6.24-6.24 16.384 0 22.624l240 240c6.24 6.24 16.384 6.24 22.624 0s6.24-16.384 0-22.624l-240-240c-3.104-3.104-7.2-4.672-11.296-4.672zM512 131.111c-178.656 0-324 145.344-324 324s145.344 324 324 324 324-145.344 324-324-145.344-324-324-324zM512 747.111c-161.024 0-292-131.008-292-292s130.976-292 292-292 292 131.008 292 292-130.976 292-292 292z" />
<glyph unicode="&#xe636;" d="M475.168 306.983c0 0 0 0 0 0-7.488 0.032-13.984 5.184-15.616 12.512-14.912 66.144-96.96 104.416-97.792 104.768-8.032 3.68-11.584 13.152-7.904 21.184 3.648 8.064 13.12 11.584 21.184 7.936 3.2-1.472 65.088-30.144 98.272-84.512 21.824 55.968 73.984 157.152 186.976 243.104 7.040 5.312 17.088 3.936 22.432-3.072 5.344-7.040 4-17.056-3.040-22.432-152.896-116.256-188.576-265.568-188.896-267.072-1.664-7.232-8.128-12.416-15.616-12.416zM688 167.111h-352c-61.76 0-112 50.24-112 112v352c0 61.76 50.24 112 112 112h352c61.76 0 112-50.24 112-112v-352c0-61.76-50.24-112-112-112zM336 711.111c-44.096 0-80-35.872-80-80v-352c0-44.128 35.904-80 80-80h352c44.096 0 80 35.872 80 80v352c0 44.128-35.904 80-80 80h-352z" />
<glyph unicode="&#xe637;" d="M636 319.111c-4.096 0-8.192 1.568-11.328 4.672l-240 240c-6.24 6.24-6.24 16.384 0 22.624s16.384 6.24 22.624 0l240-240c6.24-6.24 6.24-16.384 0-22.624-3.104-3.104-7.2-4.672-11.296-4.672zM396 319.111c-4.096 0-8.192 1.568-11.328 4.672-6.24 6.24-6.24 16.384 0 22.624l240 240c6.24 6.24 16.384 6.24 22.624 0s6.24-16.384 0-22.624l-240-240c-3.104-3.104-7.2-4.672-11.296-4.672zM692 167.111h-352c-61.76 0-112 50.24-112 112v352c0 61.76 50.24 112 112 112h352c61.76 0 112-50.24 112-112v-352c0-61.76-50.24-112-112-112zM340 711.111c-44.128 0-80-35.872-80-80v-352c0-44.128 35.872-80 80-80h352c44.128 0 80 35.872 80 80v352c0 44.128-35.872 80-80 80h-352z" />
<glyph unicode="&#xe638;" d="M640 423.111h-288c-8.832 0-16 7.168-16 16s7.168 16 16 16h288c8.832 0 16-7.168 16-16s-7.168-16-16-16zM500 131.943c-169.376 0-307.168 137.792-307.168 307.168s137.792 307.168 307.168 307.168 307.168-137.792 307.168-307.168-137.792-307.168-307.168-307.168zM500 715.943c-152.672 0-276.832-124.192-276.832-276.832s124.192-276.832 276.832-276.832 276.832 124.192 276.832 276.832-124.16 276.832-276.832 276.832z" />
<glyph unicode="&#xe639;" d="M496 279.111c-8.832 0-16 7.168-16 16v288c0 8.832 7.168 16 16 16s16-7.168 16-16v-288c0-8.832-7.168-16-16-16zM640 423.111h-288c-8.832 0-16 7.168-16 16s7.168 16 16 16h288c8.832 0 16-7.168 16-16s-7.168-16-16-16zM500 131.943c-169.376 0-307.168 137.792-307.168 307.168s137.792 307.168 307.168 307.168 307.168-137.792 307.168-307.168-137.792-307.168-307.168-307.168zM500 715.943c-152.672 0-276.832-124.192-276.832-276.832s124.192-276.832 276.832-276.832 276.832 124.192 276.832 276.832-124.16 276.832-276.832 276.832z" />
<glyph unicode="&#xe63a;" d="M640 423.111h-288c-8.832 0-16 7.168-16 16s7.168 16 16 16h288c8.832 0 16-7.168 16-16s-7.168-16-16-16zM660 167.111h-320c-61.76 0-112 50.24-112 112v320c0 61.76 50.24 112 112 112h320c61.76 0 112-50.24 112-112v-320c0-61.76-50.24-112-112-112zM340 679.111c-44.128 0-80-35.872-80-80v-320c0-44.128 35.872-80 80-80h320c44.128 0 80 35.872 80 80v320c0 44.128-35.872 80-80 80h-320z" />
<glyph unicode="&#xe63b;" d="M496 279.111c-8.832 0-16 7.168-16 16v288c0 8.832 7.168 16 16 16s16-7.168 16-16v-288c0-8.832-7.168-16-16-16zM640 423.111h-288c-8.832 0-16 7.168-16 16s7.168 16 16 16h288c8.832 0 16-7.168 16-16s-7.168-16-16-16zM664 167.111h-320c-61.76 0-112 50.24-112 112v320c0 61.76 50.24 112 112 112h320c61.76 0 112-50.24 112-112v-320c0-61.76-50.24-112-112-112zM344 679.111c-44.128 0-80-35.872-80-80v-320c0-44.128 35.872-80 80-80h320c44.128 0 80 35.872 80 80v320c0 44.128-35.872 80-80 80h-320z" />
<glyph unicode="&#xe63c;" d="M508.704 287.303c-91.968 0-166.784 74.816-166.784 166.784s74.816 166.784 166.784 166.784c91.968 0 166.752-74.816 166.752-166.784s-74.784-166.784-166.752-166.784zM508.704 588.871c-74.304 0-134.784-60.48-134.784-134.784s60.48-134.784 134.784-134.784 134.752 60.48 134.752 134.784-60.448 134.784-134.752 134.784zM265.632 191.303c-4.096 0-8.192 1.568-11.328 4.672-6.24 6.24-6.24 16.384 0 22.624l82.24 82.272c6.24 6.24 16.384 6.24 22.624 0s6.24-16.384 0-22.624l-82.24-82.272c-3.104-3.104-7.2-4.672-11.296-4.672zM676.896 602.567c-4.096 0-8.192 1.568-11.328 4.672-6.24 6.24-6.24 16.384 0 22.624l82.24 82.24c6.24 6.24 16.384 6.24 22.624 0s6.24-16.384 0-22.624l-82.24-82.24c-3.104-3.104-7.2-4.672-11.296-4.672zM279.744 438.087h-116.32c-8.832 0-16 7.168-16 16s7.168 16 16 16h116.32c8.832 0 16-7.168 16-16s-7.136-16-16-16zM861.376 438.087h-116.32c-8.832 0-16 7.168-16 16s7.168 16 16 16h116.32c8.832 0 16-7.168 16-16s-7.168-16-16-16zM347.904 602.567c-4.096 0-8.192 1.568-11.328 4.672l-82.24 82.24c-6.24 6.24-6.24 16.384 0 22.624s16.384 6.24 22.624 0l82.24-82.24c6.24-6.24 6.24-16.384 0-22.624-3.136-3.104-7.2-4.672-11.296-4.672zM759.168 191.303c-4.096 0-8.192 1.568-11.328 4.672l-82.24 82.272c-6.24 6.24-6.24 16.384 0 22.624s16.384 6.24 22.624 0l82.24-82.272c6.24-6.24 6.24-16.384 0-22.624-3.136-3.104-7.2-4.672-11.296-4.672zM512.416 670.727c-8.832 0-16 7.168-16 16v116.32c0 8.832 7.168 16 16 16s16-7.168 16-16v-116.32c0-8.832-7.168-16-16-16zM512.416 89.095c-8.832 0-16 7.168-16 16v116.32c0 8.832 7.168 16 16 16s16-7.168 16-16v-116.32c0-8.832-7.168-16-16-16z" />
<glyph unicode="&#xe63d;" d="M485.184 119.783c-128.128 0-245.344 70.272-305.856 183.424-3.008 5.632-2.4 12.512 1.568 17.504s10.464 7.104 16.672 5.536c22.496-6.016 45.088-9.088 67.104-9.088 143.168 0 259.616 116.48 259.616 259.616 0 79.808-36.096 154.080-99.072 203.744-4.992 3.936-7.2 10.496-5.568 16.672s6.752 10.752 13.056 11.712c19.264 2.944 36.416 4.384 52.448 4.384 191.2 0 346.752-155.552 346.752-346.752s-155.52-346.752-346.72-346.752zM226.112 287.847c58.4-84.704 154.752-136.064 259.072-136.064 173.536 0 314.752 141.184 314.752 314.752s-141.216 314.752-314.752 314.752c-4.128 0-8.288-0.096-12.544-0.32 53.536-54.272 83.648-126.912 83.648-204.192 0-160.8-130.816-291.616-291.616-291.616-12.736 0-25.632 0.928-38.56 2.688z" />
<glyph unicode="&#xe63e;" d="M512 211.783c-137.696 0-249.728 112.032-249.728 249.728s112.032 249.696 249.728 249.696c87.328 0 166.848-44.448 212.736-118.848 4.64-7.52 2.304-17.376-5.248-22.016-7.552-4.576-17.376-2.304-22.016 5.216-40 64.896-109.344 103.648-185.504 103.648-120.064 0-217.728-97.664-217.728-217.728s97.664-217.728 217.728-217.728c117.024 0 212.608 91.488 217.536 208.352 0.128 3.104 0.192 6.208 0.192 9.376 0 8.832 7.168 16 16 16s16-7.168 16-16c0-3.584-0.064-7.168-0.224-10.752-5.632-133.984-115.232-238.944-249.472-238.944zM548.704 554.823c-8.512 0-15.584 6.72-15.968 15.328-0.384 8.8 6.464 16.288 15.296 16.672l155.488 6.752-6.752 155.488c-0.384 8.8 6.464 16.288 15.296 16.672 9.536-0.256 16.32-6.464 16.672-15.328l7.456-171.456c0.384-8.8-6.464-16.288-15.296-16.672l-171.456-7.456c-0.256 0-0.48 0-0.736 0z" />
<glyph unicode="&#xe63f;" d="M784 103.111h-544c-8.832 0-16 7.168-16 16v384c0 8.832 7.168 16 16 16h544c8.832 0 16-7.168 16-16v-384c0-8.832-7.168-16-16-16zM256 135.111h512v352h-512v-352zM312.96 497.575c-7.648 0-14.432 5.504-15.744 13.312-1.152 6.624-26.816 163.36 52.352 257.216 37.6 44.576 92.128 67.168 162.112 67.168s124.512-22.592 162.080-67.168c79.2-93.888 53.504-250.592 52.384-257.216-1.472-8.704-9.76-14.56-18.464-13.088-8.704 1.504-14.56 9.76-13.088 18.464 0.256 1.472 24.256 148.864-45.344 231.296-31.232 36.96-77.504 55.712-137.568 55.712s-106.336-18.752-137.568-55.712c-69.6-82.4-45.6-229.824-45.344-231.296 1.472-8.704-4.384-16.96-13.088-18.464-0.928-0.16-1.824-0.224-2.72-0.224zM672 391.111h-320c-8.832 0-16 7.168-16 16s7.168 16 16 16h320c8.832 0 16-7.168 16-16s-7.168-16-16-16zM672 295.111h-320c-8.832 0-16 7.168-16 16s7.168 16 16 16h320c8.832 0 16-7.168 16-16s-7.168-16-16-16zM672 199.111h-320c-8.832 0-16 7.168-16 16s7.168 16 16 16h320c8.832 0 16-7.168 16-16s-7.168-16-16-16z" />
<glyph unicode="&#xe640;" d="M582.496 248.295c-151.392 0-274.592 123.2-274.592 274.592s123.2 274.592 274.592 274.592 274.592-123.2 274.592-274.592-123.168-274.592-274.592-274.592zM582.496 765.479c-133.76 0-242.592-108.8-242.592-242.592s108.832-242.592 242.592-242.592 242.592 108.8 242.592 242.592-108.832 242.592-242.592 242.592zM201.088 125.479c-4.096 0-8.192 1.568-11.328 4.672-6.24 6.24-6.24 16.384 0 22.624l185.984 185.984c6.24 6.24 16.384 6.24 22.624 0s6.24-16.384 0-22.624l-185.984-185.984c-3.104-3.104-7.2-4.672-11.296-4.672zM582.496 337.831c-102.048 0-185.088 83.040-185.088 185.056 0 102.048 83.040 185.088 185.088 185.088s185.088-83.040 185.088-185.088c0-102.016-83.040-185.056-185.088-185.056zM582.496 675.975c-84.416 0-153.088-68.672-153.088-153.088s68.672-153.056 153.088-153.056 153.088 68.672 153.088 153.056-68.672 153.088-153.088 153.088z" />
<glyph unicode="&#xe641;" d="M507.424 365.895c-49.184 0-89.216 40.032-89.216 89.216s40.032 89.216 89.216 89.216 89.216-40.032 89.216-89.216-40-89.216-89.216-89.216zM507.424 512.327c-31.552 0-57.216-25.664-57.216-57.216s25.664-57.216 57.216-57.216 57.216 25.664 57.216 57.216-25.632 57.216-57.216 57.216zM528.224 91.335h-40.864c-26.464 0-48 21.536-48 48v78.976c-17.6 5.024-34.56 12.064-50.688 20.96l-55.808-55.84c-18.048-18.048-49.824-18.048-67.872 0l-28.864 28.896c-9.056 9.024-14.016 21.088-14.016 33.952s4.96 24.896 14.016 33.952l55.712 55.712c-8.928 16.128-16 33.088-21.088 50.752h-78.752c-26.464 0-48 21.536-48 48v40.864c0 26.464 21.536 48 48 48h78.752c5.088 17.664 12.16 34.624 21.088 50.752l-55.712 55.712c-9.056 9.024-14.048 21.088-14.048 33.92s4.96 24.896 14.016 33.952l28.896 28.896c18.048 18.048 49.824 18.048 67.872 0l55.808-55.84c16.128 8.896 33.12 15.936 50.688 20.96v78.976c0 26.464 21.536 48 48 48h40.832c26.464 0 48-21.536 48-48v-79.2c17.504-5.088 34.368-12.128 50.368-20.992l56.096 56.096c18.048 18.048 49.824 18.048 67.872 0l28.896-28.896c9.024-9.024 14.016-21.088 14.016-33.952s-4.96-24.896-14.016-33.952l-56.192-56.192c8.8-16 15.808-32.832 20.832-50.272h79.424c26.464 0 48-21.536 48-48v-40.864c0-26.464-21.536-48-48-48h-79.424c-5.056-17.44-12.032-34.272-20.832-50.272l56.192-56.192c9.024-9.024 14.016-21.088 14.016-33.952s-4.96-24.896-14.016-33.952l-28.896-28.896c-18.048-18.048-49.824-18.048-67.872 0l-56.096 56.096c-16-8.864-32.864-15.904-50.368-20.992v-79.2c0.032-26.432-21.504-47.968-47.968-47.968zM386.112 275.335c2.912 0 5.856-0.768 8.448-2.4 20.032-12.448 41.696-21.408 64.416-26.656 7.264-1.696 12.416-8.16 12.416-15.584v-91.328c0-8.8 7.2-16 16-16h40.832c8.8 0 16 7.2 16 16v91.52c0 7.424 5.12 13.888 12.352 15.552 22.688 5.344 44.256 14.304 64.128 26.72 6.24 4 14.496 3.072 19.776-2.24l64.832-64.832c6.016-6.016 16.64-6.016 22.624 0l28.896 28.896c3.008 3.008 4.64 7.008 4.64 11.328s-1.632 8.32-4.64 11.328l-64.928 64.896c-5.248 5.248-6.176 13.44-2.272 19.744 12.352 19.904 21.28 41.472 26.528 64.064 1.696 7.264 8.16 12.384 15.584 12.384h91.808c8.8 0 16 7.2 16 16v40.864c0 8.8-7.2 16-16 16h-91.808c-7.424 0-13.92 5.12-15.584 12.384-5.248 22.592-14.144 44.128-26.528 64.064-3.904 6.304-2.976 14.496 2.272 19.744l64.928 64.896c3.008 3.008 4.64 7.008 4.64 11.328s-1.632 8.32-4.64 11.328l-28.896 28.896c-6.016 6.016-16.64 6.016-22.624 0l-64.832-64.832c-5.28-5.28-13.536-6.208-19.776-2.24-19.872 12.416-41.44 21.376-64.128 26.72-7.232 1.696-12.352 8.128-12.352 15.552v91.52c0 8.8-7.2 16-16 16h-40.864c-8.8 0-16-7.2-16-16v-91.328c0-7.424-5.152-13.92-12.416-15.584-22.72-5.248-44.384-14.208-64.416-26.656-6.24-3.968-14.464-3.008-19.744 2.272l-64.544 64.512c-6.016 6.016-16.64 6.016-22.624 0l-28.864-28.896c-3.008-3.008-4.672-7.040-4.672-11.328s1.664-8.32 4.672-11.296l64.48-64.512c5.28-5.248 6.208-13.472 2.24-19.776-12.48-20-21.472-41.696-26.784-64.48-1.696-7.264-8.16-12.384-15.584-12.384h-91.104c-8.8 0-16-7.2-16-16v-40.864c0-8.8 7.2-16 16-16h91.104c7.424 0 13.92-5.12 15.584-12.384 5.312-22.784 14.304-44.48 26.784-64.48 3.968-6.304 3.040-14.528-2.24-19.776l-64.48-64.48c-3.008-3.008-4.672-7.040-4.672-11.328s1.664-8.32 4.672-11.328l28.864-28.896c6.016-6.016 16.64-6.016 22.624 0l64.576 64.608c3.104 3.168 7.2 4.768 11.296 4.768z" />
<glyph unicode="&#xe642;" d="M508.928 121.703c-165.952 0-300.928 135.008-300.928 300.928s135.008 300.928 300.928 300.928 300.928-135.008 300.928-300.928-134.976-300.928-300.928-300.928zM508.928 691.591c-148.288 0-268.928-120.672-268.928-268.928s120.672-268.928 268.928-268.928 268.928 120.672 268.928 268.928-120.64 268.928-268.928 268.928zM608 775.111h-192c-8.832 0-16 7.168-16 16s7.168 16 16 16h192c8.832 0 16-7.168 16-16s-7.168-16-16-16zM512 375.111c-4.096 0-8.192 1.568-11.328 4.672l-160 160c-6.24 6.24-6.24 16.384 0 22.624s16.384 6.24 22.624 0l160-160c6.24-6.24 6.24-16.384 0-22.624-3.104-3.104-7.2-4.672-11.296-4.672zM512 375.111c-4.096 0-8.192 1.568-11.328 4.672-6.24 6.24-6.24 16.384 0 22.624l96 96c6.24 6.24 16.384 6.24 22.624 0s6.24-16.384 0-22.624l-96-96c-3.104-3.104-7.2-4.672-11.296-4.672z" />
<glyph unicode="&#xe643;" d="M714.016 199.111h-399.328c-42.56 0-77.44 17.152-95.68 47.072-18.976 31.168-18.016 72.032 2.656 112.16l212.16 383.328c20.64 40.096 49.632 62.4 81.408 62.4 31.232 0 59.616-21.728 79.936-61.184l211.744-384.96c20.768-40.384 21.792-80.992 2.944-111.872-18.176-29.856-53.12-46.944-95.84-46.944zM515.232 772.039c-18.944 0-38.304-16.576-53.184-45.472l-212.16-383.328c-15.232-29.568-16.608-59.040-3.52-80.448 12.448-20.384 36.736-31.68 68.32-31.68h399.328c31.744 0 56.096 11.232 68.512 31.552 12.864 21.12 11.456 50.336-3.872 80.192l-211.744 384.96c-14.528 28.256-33.312 44.224-51.68 44.224zM514.368 260.391c-27.904 0-50.592 22.688-50.592 50.56 0 27.904 22.688 50.592 50.592 50.592 27.872 0 50.56-22.688 50.56-50.592 0-27.872-22.688-50.56-50.56-50.56zM514.368 329.543c-10.24 0-18.592-8.352-18.592-18.592s8.352-18.56 18.592-18.56 18.56 8.32 18.56 18.56-8.288 18.592-18.56 18.592zM514.368 388.391c-47.616 0-50.592 187.424-50.592 189.344 0 46.56 10.656 125.376 50.592 125.376 39.904 0 50.56-78.816 50.56-125.376 0-1.92-2.944-189.344-50.56-189.344zM514.368 669.895c-6.656-7.68-18.592-38.912-18.592-92.16 0-51.296 9.504-115.872 18.592-145.152 9.088 29.28 18.56 93.888 18.56 145.152 0 53.248-11.936 84.48-18.56 92.16z" />
<glyph unicode="&#xe644;" d="M704 423.111h-384c-8.832 0-16 7.168-16 16s7.168 16 16 16h384c8.832 0 16-7.168 16-16s-7.168-16-16-16z" />
<glyph unicode="&#xe645;" d="M496 247.111c-8.832 0-16 7.168-16 16v352c0 8.832 7.168 16 16 16s16-7.168 16-16v-352c0-8.832-7.168-16-16-16zM672 423.111h-352c-8.832 0-16 7.168-16 16s7.168 16 16 16h352c8.832 0 16-7.168 16-16s-7.168-16-16-16z" />
</font>
</defs>
</svg>
